<?xml version="1.0" standalone="no"?> <!DOCTYPE svg PUBLIC "-//W3C//DTD SVG 1.0//EN" "http://www.w3.org/TR/2001/REC-SVG-20010904/DTD/svg10.dtd" > <svg xmlns="http://www.w3.org/2000/svg" width="100%" height="100%">
<defs >
<font id="ralewayextralight" horiz-adv-x="453" ><font-face
    font-family="Raleway"
    units-per-em="1000"
    panose-1="2 11 0 3 3 1 1 6 0 3"
    ascent="940"
    descent="-234"
    alphabetic="0" />
<missing-glyph horiz-adv-x="0" />
<glyph unicode=" " glyph-name="space" horiz-adv-x="265" />
<glyph unicode="!" glyph-name="exclam" horiz-adv-x="220" d="M127 208H93V717H127V208ZM127 0H93V92H127V0Z" />
<glyph unicode="&quot;" glyph-name="quotedbl" horiz-adv-x="225" d="M96 615H65V712H96V615ZM160 615H128V712H160V615Z" />
<glyph unicode="#" glyph-name="numbersign" horiz-adv-x="663" d="M624 503V474H502L447 247H583V217H440L388 0H356L409 217H184L132 0H100L154 217H41V247H161L216 474H81V503H223L273 710H305L254 503H479L529 710H561L510 503H624ZM192 247H417L472 474H246L192
247Z" />
<glyph unicode="$" glyph-name="dollar" horiz-adv-x="608" d="M527 631L508 605Q438 682 316 683V370Q381 357 421 344T498 309T551 255T568 177Q568 90 501 43T317 -5V-96H292V-4Q142 2 38 103L58 128Q149 32 293 25V342Q169 367 116 403T62 520Q62 609 123
659T292 714V815H317V715Q446 714 527 631ZM532 173Q532 243 483 277T316 337V25Q417 25 474 62T532 173ZM97 525Q97 459 140 429T293 375V682Q97 675 97 525Z" />
<glyph unicode="%" glyph-name="percent" horiz-adv-x="689" d="M249 441T190 441T90 481T49 580T90 679T190 720T289 679T331 580T290 482ZM190 466Q237 466 269 500T302 580Q302 627 269 660T190 694Q143 694 111 660T78 580Q78 533 111 500T190 466ZM559 -10T500
-10T400 31T358 130T399 228T500 269T600 229T641 130T600 31ZM500 16Q546 16 579 50T612 130T579 210T500 244Q453 244 420 210T387 130Q387 82 420 49T500 16ZM77 -2L55 16L334 363L611 712L633 695L353 346L77 -2Z" />
<glyph unicode="&amp;" glyph-name="ampersand" horiz-adv-x="649" d="M636 0H590L491 103Q405 -10 271 -10Q182 -10 117 40T52 174Q52 240 93 288T216 392Q155 456 131 495T107 571Q107 631 157 675T278 719Q344 719 388 681T432 588Q432 550 405 512T348 450T262
388L490 152Q539 237 539 340H570Q570 223 511 130L636 0ZM275 19Q396 19 471 124L236 371Q162 321 124 276T85 172Q85 100 143 60T275 19ZM140 571Q140 542 161 507T242 409Q327 467 363 503T399 586Q399 630 364 659T277 689Q220 689 180 655T140 571Z" />
<glyph unicode="&apos;" glyph-name="quotesingle" horiz-adv-x="143" d="M87 634H56V712H87V634Z" />
<glyph unicode="(" glyph-name="parenleft" horiz-adv-x="247" d="M50 345Q50 439 85 530T185 730L211 714Q160 639 121 534T82 342Q82 265 116 170T211 -13L185 -29Q50 169 50 345Z" />
<glyph unicode=")" glyph-name="parenright" horiz-adv-x="247" d="M198 345Q198 171 63 -29L37 -13Q97 76 131 170T166 342Q166 428 127 533T36 714L63 730Q128 620 163 529T198 345Z" />
<glyph unicode="*" glyph-name="asterisk" horiz-adv-x="312" d="M114 544L94 559L135 617L68 639L75 663L143 640L140 711H171L168 640L236 663L243 639L176 617L218 559L197 544L155 603L114 544Z" />
<glyph unicode="+" glyph-name="plus" horiz-adv-x="415" d="M224 370H359V340H224V194H191V340H56V370H191V516H224V370Z" />
<glyph unicode="," glyph-name="comma" horiz-adv-x="189" d="M66 -43V-14Q82 -14 82 2V74H113V0Q113 -21 100 -32T66 -43Z" />
<glyph unicode="-" glyph-name="hyphen" horiz-adv-x="426" d="M356 255H70V288H356V255Z" />
<glyph unicode="." glyph-name="period" horiz-adv-x="171" d="M101 0H70V74H101V0Z" />
<glyph unicode="/" glyph-name="slash" horiz-adv-x="559" d="M490 710H531L70 0H30L490 710Z" />
<glyph unicode="0" glyph-name="zero" horiz-adv-x="616" d="M555 425T555 293T485 76T308 -10T131 75T61 293T131 511T308 597T485 511ZM520 293Q520 414 461 489T308 564Q213 564 154 489T95 293T154 98T308 23Q402 23 461 98T520 293Z" />
<glyph unicode="1" glyph-name="one" horiz-adv-x="395" d="M246 32H373V0H69V32H211V524Q193 499 139 470T47 440V476Q78 476 118 499T183 544T211 571H246V32Z" />
<glyph unicode="2" glyph-name="two" horiz-adv-x="515" d="M458 0H57Q57 188 226 263Q233 266 259 277T296 293T330 310T363 332T387 358T406 390T412 428Q412 476 372 512T258 549Q215 549 175 530T119 494T91 463L66 486Q71 492 77 498T103 521T143 549T196
571T262 581Q348 581 397 536T447 430Q447 406 441 385T421 347T395 318T360 293T325 275T287 258T254 243Q211 224 179 194T129 133T103 77T93 32H458V0Z" />
<glyph unicode="3" glyph-name="three" horiz-adv-x="524" d="M319 236Q389 226 431 175T473 50Q473 -38 413 -92T256 -147Q181 -147 125 -114T45 -23L72 -5Q90 -55 139 -85T257 -115Q340 -115 389 -70T439 52Q439 130 389 175T250 221H227V252H251Q335 252 380
288T426 390Q426 460 379 502T256 544Q196 544 149 515T81 436L56 453Q77 508 132 542T258 576Q346 576 403 525T461 396Q461 332 423 288T319 236Z" />
<glyph unicode="4" glyph-name="four" horiz-adv-x="531" d="M411 -127H377V66H21V95L387 571H411V98H499V66H411V-127ZM379 514L62 98H379V514Z" />
<glyph unicode="5" glyph-name="five" horiz-adv-x="549" d="M276 308Q373 308 439 245T506 83Q506 -19 437 -84T268 -149Q194 -149 134 -110T43 -6L72 4Q99 -51 152 -84T268 -117Q354 -117 413 -61T472 83Q472 167 415 221T274 276Q219 276 171 252T92 183H57L135
571H474V538H162L101 234Q170 308 276 308Z" />
<glyph unicode="6" glyph-name="six" horiz-adv-x="605" d="M558 334T558 233T486 61T311 -10Q201 -10 130 66T59 272Q59 493 128 604T314 715Q386 715 442 677T522 572L495 556Q476 613 427 648T315 683Q214 683 154 587T94 319Q116 389 177 432T316 475Q416
475 487 405ZM312 22Q400 22 462 84T525 232Q525 319 462 381T312 444Q224 444 161 382T98 233T161 85T312 22Z" />
<glyph unicode="7" glyph-name="seven" horiz-adv-x="537" d="M118 -127L464 550H50V583H519L157 -127H118Z" />
<glyph unicode="8" glyph-name="eight" horiz-adv-x="592" d="M535 191Q535 103 464 48T292 -7Q188 -7 122 52T55 193Q55 261 102 311T213 381Q155 402 118 442T81 538Q81 617 146 663T296 710Q380 710 445 664T510 538Q510 484 473 443T377 381Q446 360 490 309T535
191ZM501 194Q501 271 437 318T294 365Q215 365 153 316T90 192T154 70T297 23T438 71T501 194ZM115 535Q115 472 171 434T295 395T419 434T476 537Q476 601 422 639T294 678T168 639T115 535Z" />
<glyph unicode="9" glyph-name="nine" horiz-adv-x="589" d="M41 328Q41 429 113 500T288 571Q398 571 469 495T540 289Q540 68 471 -43T285 -154Q213 -154 157 -116T77 -11L104 5Q123 -52 172 -87T284 -122Q385 -122 445 -26T505 242Q483 172 422 129T283 86Q182
86 112 157T41 328ZM287 539Q199 539 137 477T74 329Q74 242 137 180T287 117Q375 117 438 179T501 328T438 476T287 539Z" />
<glyph unicode=":" glyph-name="colon" horiz-adv-x="174" d="M102 443H71V517H102V443ZM102 0H71V74H102V0Z" />
<glyph unicode=";" glyph-name="semicolon" horiz-adv-x="192" d="M114 443H83V517H114V443ZM68 -43V-14Q83 -14 83 2V74H114V0Q114 -43 68 -43Z" />
<glyph unicode="&lt;" glyph-name="less" horiz-adv-x="505" d="M35 247V270L452 520V483L84 259L452 34V-3L35 247Z" />
<glyph unicode="=" glyph-name="equal" horiz-adv-x="444" d="M370 220H74V249H370V220ZM370 303H74V332H370V303Z" />
<glyph unicode="&gt;" glyph-name="greater" horiz-adv-x="505" d="M470 270V247L52 -3V34L421 259L52 483V520L470 270Z" />
<glyph unicode="?" glyph-name="question" horiz-adv-x="473" d="M203 186H172Q172 267 193 305T258 368Q265 372 289 383T323 401T351 421T378 449T394 485T402 534Q402 609 356 648T244 688Q186 688 137 657T62 576L36 590Q63 650 121 684T244 719Q322 719 377
670T433 531Q433 507 429 487T415 450T397 423T370 399T344 381T312 364T282 348Q256 334 241 320T215 272T203 186ZM204 0H172V91H204V0Z" />
<glyph unicode="@" glyph-name="at" horiz-adv-x="821" d="M419 603Q568 603 672 493T777 222Q777 199 775 175T765 114T742 51T700 4T635 -16Q612 -16 597 -9T574 13T563 43T558 82Q530 51 485 31T390 10Q323 10 283 46T243 140Q243 186 271 215T338 256T425
267Q495 267 558 244Q558 331 530 377T429 424Q353 424 286 376L272 399Q351 451 431 451Q480 451 512 434T559 386T579 323T585 249V103Q585 54 595 32T637 9Q679 9 706 47T743 131T752 223Q752 372 655 475T418 579Q280 579 179 479T78 230Q78 83 176 -19T416
-122Q495 -122 568 -84L579 -106Q502 -146 416 -146Q266 -146 160 -37T54 230Q54 337 105 423T240 556T419 603ZM487 59Q557 92 557 173V218Q553 218 533 224T483 236T421 242Q357 242 314 218T270 140Q270 93 305 65T391 37Q441 37 487 59Z" />
<glyph unicode="A" glyph-name="A" horiz-adv-x="682" d="M58 0H21L327 710H356L662 0H624L519 245H163L58 0ZM508 275L342 666L173 275H508Z" />
<glyph unicode="B" glyph-name="B" horiz-adv-x="662" d="M612 184Q612 108 558 54T428 0H98V710H420Q492 710 537 655T582 529Q582 475 554 430T480 364Q540 346 576 296T612 184ZM577 187Q577 249 536 296T435 343H132V32H428Q489 32 533 79T577 187ZM413 678H132V374H407Q467
374 507 420T548 526Q548 588 510 633T413 678Z" />
<glyph unicode="C" glyph-name="C" horiz-adv-x="698" d="M50 360Q50 425 73 487T137 600T243 682T385 714Q476 714 543 672T645 559L615 545Q579 616 516 648T381 681Q290 681 221 633T118 511T84 357Q84 225 172 126T384 27Q457 27 525 63T631 171L661 159Q627
82 547 38T380 -6Q287 -6 210 48T92 185T50 360Z" />
<glyph unicode="D" glyph-name="D" horiz-adv-x="718" d="M329 0H98V710H329Q490 710 577 611T664 356Q664 194 573 97T329 0ZM630 356Q630 500 551 589T329 678H132V32H329Q473 32 551 122T630 356Z" />
<glyph unicode="E" glyph-name="E" horiz-adv-x="617" d="M132 32H567V0H98V710H558V678H132V379H505V347H132V32Z" />
<glyph unicode="F" glyph-name="F" horiz-adv-x="593" d="M132 0H98V710H557V678H132V378H494V347H132V0Z" />
<glyph unicode="G" glyph-name="G" horiz-adv-x="728" d="M632 0V116Q526 -5 385 -5Q291 -5 213 48T93 184T51 355Q51 499 144 607T375 715Q568 715 646 560L617 545Q544 682 375 682Q247 682 166 583T85 355Q85 224 173 126T386 28Q522 28 632 157V311H468V341H664V0H632Z"
/>
<glyph unicode="H" glyph-name="H" horiz-adv-x="736" d="M604 710H639V0H604V347H132V0H98V710H132V379H604V710Z" />
<glyph unicode="I" glyph-name="I" horiz-adv-x="230" d="M132 0H98V709H132V0Z" />
<glyph unicode="J" glyph-name="J" horiz-adv-x="482" d="M22 33L35 61Q91 22 176 22Q224 22 257 37T310 77T340 146T354 235T358 349V709H392V349Q392 277 388 228T371 130T335 53T272 7T176 -11Q86 -11 22 33Z" />
<glyph unicode="K" glyph-name="K" horiz-adv-x="628" d="M132 0H98V709H132V263L566 710H609L310 399L624 0H583L287 378L132 220V0Z" />
<glyph unicode="L" glyph-name="L" horiz-adv-x="591" d="M568 0H98V710H132V32H568V0Z" />
<glyph unicode="M" glyph-name="M" horiz-adv-x="885" d="M787 0H753V642L454 138H431L132 642V0H98V710H130L443 181L755 710H787V0Z" />
<glyph unicode="N" glyph-name="N" horiz-adv-x="778" d="M646 0L132 644V0H98V710H124L646 55V709H680V0H646Z" />
<glyph unicode="O" glyph-name="O" horiz-adv-x="764" d="M382 -5Q240 -4 146 104T51 355Q51 499 147 607T383 715Q524 715 618 605T713 355Q713 210 617 103T382 -5ZM85 355Q85 224 170 126T382 28Q510 28 594 128T679 355Q679 486 593 584T382 682Q254 682 170
583T85 355Z" />
<glyph unicode="P" glyph-name="P" horiz-adv-x="622" d="M132 0H98V710H388Q474 710 532 644T591 493Q591 405 536 340T395 274H132V0ZM132 678V306H394Q466 306 511 362T557 493T507 622T387 678H132Z" />
<glyph unicode="Q" glyph-name="Q" horiz-adv-x="764" d="M644 0L585 72Q497 -5 382 -5Q240 -4 146 104T51 355Q51 499 147 607T383 715Q524 715 618 605T713 355Q713 280 685 212T607 92L682 0H644ZM382 28Q486 28 565 97L486 195H524L586 118Q630 165 654 227T679
355Q679 486 593 584T382 682Q254 682 170 583T85 355Q85 224 170 126T382 28Z" />
<glyph unicode="R" glyph-name="R" horiz-adv-x="652" d="M132 0H98V710H390Q476 710 534 644T593 493Q593 410 544 348T418 278L597 0H557L380 274H132V0ZM132 678V306H396Q468 306 513 362T558 493Q558 566 508 622T389 678H132Z" />
<glyph unicode="S" glyph-name="S" horiz-adv-x="611" d="M530 631L511 605Q441 683 316 683Q100 683 100 525Q100 456 147 426T317 371Q449 344 510 304T571 177Q571 89 504 42T319 -5Q153 -5 41 103L61 128Q161 25 320 25Q422 25 478 62T535 173Q535 245 483
279T305 340Q176 366 121 402T65 520Q65 613 132 664T315 715Q447 715 530 631Z" />
<glyph unicode="T" glyph-name="T" horiz-adv-x="611" d="M589 710V678H323V0H288V678H22V710H589Z" />
<glyph unicode="U" glyph-name="U" horiz-adv-x="759" d="M379 28Q438 28 484 47T558 96T605 170T631 258T638 354V710H673V354Q673 280 658 218T609 104T518 24T380 -5Q299 -5 240 25T149 108T102 222T87 354V710H121V354Q121 288 133 233T174 130T255 55T379 28Z" />
<glyph unicode="V" glyph-name="V" horiz-adv-x="679" d="M18 710H54L340 43L624 710H661L356 0H323L18 710Z" />
<glyph unicode="W" glyph-name="W" horiz-adv-x="1042" d="M500 411L374 704H409L520 442L632 704H666L540 411L700 41L986 710H1024L718 0H684L521 378L357 0H324L18 710H55L341 41L500 411Z" />
<glyph unicode="X" glyph-name="X" horiz-adv-x="624" d="M9 710H50L312 376L575 710H615L332 350L607 0H567L312 324L58 0H17L292 350L9 710Z" />
<glyph unicode="Y" glyph-name="Y" horiz-adv-x="629" d="M14 710H52L314 307L577 710H616L331 272V0H297V274L14 710Z" />
<glyph unicode="Z" glyph-name="Z" horiz-adv-x="625" d="M29 0V30L554 678H35V710H595V680L72 32H592V0H29Z" />
<glyph unicode="[" glyph-name="bracketleft" horiz-adv-x="221" d="M175 -40H90V740H175V709H123V-9H175V-40Z" />
<glyph unicode="\" glyph-name="backslash" horiz-adv-x="534" d="M28 710H69L504 0H464L28 710Z" />
<glyph unicode="]" glyph-name="bracketright" horiz-adv-x="221" d="M131 -40H46V-9H98V709H46V740H131V-40Z" />
<glyph unicode="^" glyph-name="asciicircum" horiz-adv-x="518" d="M79 303H47L245 710H274L471 303H438L260 671L79 303Z" />
<glyph unicode="_" glyph-name="underscore" horiz-adv-x="432" d="M411 -32H21V0H411V-32Z" />
<glyph unicode="`" glyph-name="grave" horiz-adv-x="205" d="M133 638L50 730H94L157 651L133 638Z" />
<glyph unicode="a" glyph-name="a" horiz-adv-x="532" d="M206 -10Q135 -10 86 36T36 150Q36 216 96 258T252 300T420 272V328Q420 405 375 452T256 499Q180 499 89 435L73 460Q174 528 258 528Q348 528 401 474T454 326V54Q454 32 472 32V0Q469 -1 464 -1Q447
-1 435 11T422 42V88Q387 42 330 16T206 -10ZM211 19Q273 19 326 42T404 106Q420 127 420 146V244Q344 274 254 274Q171 274 121 240T70 151Q70 95 110 57T211 19Z" />
<glyph unicode="b" glyph-name="b" horiz-adv-x="607" d="M312 -10Q253 -10 198 22T112 106V0H80V730H114V402Q201 528 322 528Q429 528 495 446T562 258Q562 150 489 70T312 -10ZM308 22Q401 22 464 94T527 258Q527 353 467 424T317 496Q250 496 197 455T114
351V170Q119 112 182 67T308 22Z" />
<glyph unicode="c" glyph-name="c" horiz-adv-x="543" d="M45 150T45 262T117 451T298 528Q365 528 418 497T498 410L464 398Q440 444 395 470T295 496Q204 496 142 429T79 262Q79 164 143 93T296 22Q354 22 406 53T471 125L504 115Q486 61 428 26T299 -10Q194
-10 120 70Z" />
<glyph unicode="d" glyph-name="d" horiz-adv-x="610" d="M295 -10Q189 -10 117 71T45 258Q45 368 114 448T285 528Q351 528 405 493T493 402V730H527V54Q527 32 545 32V0Q542 -1 536 -1Q519 -1 507 12T495 42V106Q463 54 408 22T295 -10ZM299 22Q360 22 424 68T493
172V351Q471 411 411 453T290 496Q198 496 139 424T79 258Q79 163 143 93T299 22Z" />
<glyph unicode="e" glyph-name="e" horiz-adv-x="581" d="M298 -10Q193 -10 119 70T45 263Q45 373 117 450T294 528Q400 528 473 450T547 260Q547 258 546 252V245H80Q87 149 150 84T299 19Q357 19 407 48T478 124L509 116Q486 61 427 26T298 -10ZM79 274H513Q506
372 445 435T295 498T146 435T79 274Z" />
<glyph unicode="f" glyph-name="f" horiz-adv-x="327" d="M139 0H105V429H31V459H105V539Q105 633 143 686T247 740Q310 740 346 706L329 684Q301 709 252 709Q197 709 168 665T139 539V459H291V429H139V0Z" />
<glyph unicode="g" glyph-name="g" horiz-adv-x="607" d="M293 -9Q188 -9 117 72T45 258Q45 367 113 447T286 528Q407 528 495 402V520H527V-16Q527 -116 459 -169T290 -223Q203 -223 150 -192T63 -101L88 -87Q118 -140 171 -166T290 -193Q377 -193 435 -147T493
-16V106Q460 55 406 23T293 -9ZM299 22Q367 22 427 69T493 172V351Q469 414 412 455T290 496Q195 496 137 423T79 258Q79 163 143 93T299 22Z" />
<glyph unicode="h" glyph-name="h" horiz-adv-x="567" d="M493 294V0H459V290Q459 496 322 496Q254 496 194 447T114 325V0H80V730H114V390Q146 453 204 490T328 528Q493 528 493 294Z" />
<glyph unicode="i" glyph-name="i" horiz-adv-x="194" d="M114 0H80V520H114V0ZM114 646H80V730H114V646Z" />
<glyph unicode="j" glyph-name="j" horiz-adv-x="194" d="M-25 -173Q-93 -173 -129 -138L-108 -116Q-79 -141 -28 -141Q13 -141 46 -109T80 -33V520H114V-32Q114 -91 71 -132T-25 -173ZM114 646H80V730H114V646Z" />
<glyph unicode="k" glyph-name="k" horiz-adv-x="512" d="M498 0H459L247 288L114 167V0H80V730H114V207L450 518H492L270 310L498 0Z" />
<glyph unicode="l" glyph-name="l" horiz-adv-x="236" d="M85 82V730H118V89Q118 60 136 43T183 26Q210 26 238 36L246 8Q209 -5 170 -5Q132 -5 109 18T85 82Z" />
<glyph unicode="m" glyph-name="m" horiz-adv-x="909" d="M835 294V0H801V290Q801 496 669 496Q600 496 548 449T474 324V0H440V290Q440 396 409 446T309 496T189 449T114 325V0H80V520H112V390Q146 456 198 492T313 528Q378 528 420 489T470 382Q545 528 676
528Q835 528 835 294Z" />
<glyph unicode="n" glyph-name="n" horiz-adv-x="568" d="M493 294V0H459V290Q459 397 429 446T333 496Q261 496 198 447T114 325V0H80V520H112V390Q144 452 206 490T339 528Q419 528 456 470T493 294Z" />
<glyph unicode="o" glyph-name="o" horiz-adv-x="590" d="M295 -10Q190 -10 118 69T45 258T118 448T295 528Q399 528 472 448T546 258T473 69T295 -10ZM79 354T79 257T142 91T294 22T447 92T511 259T447 426T295 496T143 425Z" />
<glyph unicode="p" glyph-name="p" horiz-adv-x="606" d="M322 -10Q257 -10 204 25T114 116V-213H80V520H112V412Q145 464 199 496T312 528Q418 528 490 446T562 259Q562 148 495 69T322 -10ZM317 22Q409 22 468 94T527 259Q527 353 463 424T308 496Q247 496 183
450T114 346V167Q141 104 197 63T317 22Z" />
<glyph unicode="q" glyph-name="q" horiz-adv-x="606" d="M284 -10Q180 -10 113 71T45 259Q45 367 118 447T294 528Q354 528 408 495T494 412V520H526V-158Q526 -180 545 -181V-212Q542 -213 536 -213Q517 -213 505 -200T492 -167V116Q407 -10 284 -10ZM290 22Q356
22 408 62T492 164V344Q485 403 424 449T298 496Q205 496 142 423T79 258Q79 162 139 92T290 22Z" />
<glyph unicode="r" glyph-name="r" horiz-adv-x="333" d="M313 520V488Q241 485 188 443T114 327V0H80V520H113V388Q140 443 185 478T281 519Q288 519 299 519T313 520Z" />
<glyph unicode="s" glyph-name="s" horiz-adv-x="476" d="M239 -10Q114 -10 35 72L54 95Q136 19 238 19Q312 19 356 50T401 137Q401 185 363 207T227 252T95 297T59 378Q59 451 112 489T245 528Q306 528 352 508T420 454L397 437Q376 466 334 482T242 499Q176
499 134 470T92 383Q92 338 121 320T234 282Q280 271 305 264T359 246T402 221T425 188T435 141Q435 72 382 31T239 -10Z" />
<glyph unicode="t" glyph-name="t" horiz-adv-x="306" d="M286 52L299 24L288 19Q278 14 267 9T236 0T197 -5Q157 -5 129 18T101 81V490H27V520H101V699H135V520H259V490H135V86Q137 58 156 43T203 27Q253 27 286 52Z" />
<glyph unicode="u" glyph-name="u" horiz-adv-x="580" d="M241 -10Q74 -10 74 224V520H108V228Q108 22 248 22Q319 22 379 69T463 190V520H497V54Q497 32 515 32V0Q511 -1 505 -1Q489 -1 477 12T465 42V128Q431 64 371 27T241 -10Z" />
<glyph unicode="v" glyph-name="v" horiz-adv-x="523" d="M278 0H245L23 520H59L262 39L465 520H500L278 0Z" />
<glyph unicode="w" glyph-name="w" horiz-adv-x="800" d="M536 41L743 520H778L552 0H523L400 284L278 0H249L23 520H57L264 41L382 314L294 519H326L400 344L474 519H506L419 314L536 41Z" />
<glyph unicode="x" glyph-name="x" horiz-adv-x="486" d="M17 520H57L235 294L243 281L251 294L429 520H469L263 258L467 0H427L251 224L243 236L235 224L59 0H19L223 258L17 520Z" />
<glyph unicode="y" glyph-name="y" horiz-adv-x="541" d="M121 -222V-191Q161 -191 171 -183Q182 -175 256 0L19 520H56L274 36L480 520H514L216 -176Q196 -222 141 -222H121Z" />
<glyph unicode="z" glyph-name="z" horiz-adv-x="484" d="M30 0V28L413 491H36V520H453V492L71 29H450V0H30Z" />
<glyph unicode="{" glyph-name="braceleft" horiz-adv-x="225" d="M180 709H125V418Q125 381 102 360Q125 340 125 302V0H180V-31H116Q93 -31 93 -1V297Q93 342 60 346V376Q73 376 81 386T91 405T93 423V710Q93 727 100 733T116 740H180V709Z" />
<glyph unicode="|" glyph-name="bar" horiz-adv-x="208" d="M120 -130H88V775H120V-130Z" />
<glyph unicode="}" glyph-name="braceright" horiz-adv-x="225" d="M101 709H46V740H110Q114 740 118 738T128 729T133 710V423Q133 415 135 406T144 386T165 376V346Q133 342 133 297V-1Q133 -31 110 -31H46V0H101V302Q101 341 123 360Q101 380 101 418V709Z" />
<glyph unicode="~" glyph-name="asciitilde" horiz-adv-x="480" d="M71 248Q71 255 79 274T109 314T162 335Q190 335 238 305T314 275Q336 275 353 288T377 313T384 329L410 328Q410 323 402 306T371 269T314 248Q280 248 230 278T161 308T126 293T104 265T97 248H71Z" />
</font>
</defs>
</svg>
