<?xml version="1.0" standalone="no"?> <!DOCTYPE svg PUBLIC "-//W3C//DTD SVG 1.0//EN" "http://www.w3.org/TR/2001/REC-SVG-20010904/DTD/svg10.dtd" > <svg xmlns="http://www.w3.org/2000/svg" width="100%" height="100%">
<defs >
<font id="ralewaylight" horiz-adv-x="458" ><font-face
    font-family="Raleway"
    units-per-em="1000"
    panose-1="2 11 0 3 3 1 1 6 0 3"
    ascent="940"
    descent="-234"
    alphabetic="0" />
<missing-glyph horiz-adv-x="0" />
<glyph unicode=" " glyph-name="space" horiz-adv-x="261" />
<glyph unicode="!" glyph-name="exclam" horiz-adv-x="231" d="M141 218H91V717H141V218ZM141 0H91V102H141V0Z" />
<glyph unicode="&quot;" glyph-name="quotedbl" horiz-adv-x="251" d="M109 603H64V714H109V603ZM187 603H142V714H187V603Z" />
<glyph unicode="#" glyph-name="numbersign" horiz-adv-x="673" d="M634 505V466H508L457 253H592V212H447L396 0H352L404 212H196L145 0H101L153 212H40V253H163L214 466H82V505H224L274 710H318L267 505H475L525 710H569L518 505H634ZM206 253H414L466 466H257L206
253Z" />
<glyph unicode="$" glyph-name="dollar" horiz-adv-x="612" d="M534 632L508 592Q440 666 320 669V378Q385 364 426 351T503 315T555 261T572 182Q572 92 505 44T323 -6V-99H292V-5Q142 3 37 100L64 141Q152 48 294 39V334Q169 360 116 397T62 516Q62 606 124
657T292 714V815H323V715Q449 712 534 632ZM518 176Q518 239 472 271T320 328V39Q414 39 466 74T518 176ZM114 523Q114 462 154 434T294 384V668Q114 661 114 523Z" />
<glyph unicode="%" glyph-name="percent" horiz-adv-x="706" d="M252 437T192 437T90 478T47 578Q47 637 89 678T192 720T294 679T337 578Q337 520 295 479ZM192 469Q236 469 267 502T298 578Q298 623 266 655T192 688Q148 688 117 655T86 578Q86 533 117 501T192
469ZM574 -10T514 -10T412 31T369 132Q369 190 411 231T514 273T616 232T659 132Q659 73 617 32ZM470 22T514 22T589 54T620 132T588 209T514 241Q470 241 439 208T408 132Q408 86 439 54ZM90 -3L62 21L342 365L616 713L644 690L364 345L90 -3Z" />
<glyph unicode="&amp;" glyph-name="ampersand" horiz-adv-x="660" d="M648 0H582L491 95Q402 -10 273 -10Q180 -10 115 42T50 178Q50 244 90 292T207 393Q150 455 127 493T104 567Q104 630 154 674T278 719Q346 719 392 680T438 583Q438 528 397 485T275 389L489
165Q536 248 536 348H579Q579 229 519 134L648 0ZM278 31Q388 31 462 125L236 363Q170 317 135 274T99 176Q99 108 153 70T278 31ZM151 568Q151 541 170 510T246 419Q323 470 357 504T391 581T359 650T278 678Q224 678 188 646T151 568Z" />
<glyph unicode="&apos;" glyph-name="quotesingle" horiz-adv-x="156" d="M100 620H56V714H100V620Z" />
<glyph unicode="(" glyph-name="parenleft" horiz-adv-x="257" d="M47 345Q47 439 82 531T184 734L223 714Q173 640 134 535T94 342Q94 265 128 172T222 -11L185 -33Q47 168 47 345Z" />
<glyph unicode=")" glyph-name="parenright" horiz-adv-x="257" d="M210 345Q210 168 73 -33L35 -11Q95 79 129 172T163 342Q163 429 124 534T34 714L73 734Q139 624 174 532T210 345Z" />
<glyph unicode="*" glyph-name="asterisk" horiz-adv-x="317" d="M116 535L91 553L133 613L65 635L74 664L143 640L140 712H177L174 640L242 664L251 635L183 613L226 553L200 535L158 596L116 535Z" />
<glyph unicode="+" glyph-name="plus" horiz-adv-x="417" d="M232 376H362V334H232V193H185V334H55V376H185V517H232V376Z" />
<glyph unicode="," glyph-name="comma" horiz-adv-x="196" d="M61 -54V-14Q79 -14 79 4V85H123V-2Q123 -28 105 -41T61 -54Z" />
<glyph unicode="-" glyph-name="hyphen" horiz-adv-x="424" d="M356 249H68V295H356V249Z" />
<glyph unicode="." glyph-name="period" horiz-adv-x="180" d="M112 0H68V85H112V0Z" />
<glyph unicode="/" glyph-name="slash" horiz-adv-x="581" d="M495 710H553L87 0H30L495 710Z" />
<glyph unicode="0" glyph-name="zero" horiz-adv-x="616" d="M557 425T557 293T487 76T308 -10T130 75T59 293T129 511T308 597Q415 597 486 511ZM506 179T506 293T451 478T308 550T165 479T109 293T164 108T308 37Q396 37 451 108Z" />
<glyph unicode="1" glyph-name="one" horiz-adv-x="410" d="M261 46H388V0H68V46H210V508Q192 483 138 455T46 426V476Q76 476 116 498T181 543T210 571H261V46Z" />
<glyph unicode="2" glyph-name="two" horiz-adv-x="523" d="M468 0H54Q54 35 59 64T81 131T132 202T222 262Q227 265 264 281T316 307T356 334T393 374T404 421Q404 467 367 501T264 535Q167 535 97 451L63 486Q150 581 271 581Q356 581 406 535T457 423Q457 385
440 354T391 301T335 268T274 241Q186 206 151 159T111 46H468V0Z" />
<glyph unicode="3" glyph-name="three" horiz-adv-x="530" d="M331 236Q399 226 440 176T481 52Q481 -37 419 -92T257 -147Q182 -147 125 -115T42 -27L79 3Q99 -45 145 -73T258 -101Q337 -101 383 -60T429 54Q429 127 381 170T247 213H223V257H249Q328 257 372
293T416 391Q416 455 372 492T258 530Q199 530 154 503T87 428L53 456Q76 510 133 543T262 576Q352 576 410 526T468 396Q468 334 431 290T331 236Z" />
<glyph unicode="4" glyph-name="four" horiz-adv-x="536" d="M417 -127H367V59H21V103L382 571H417V105H505V59H417V-127ZM371 490L77 105H371V490Z" />
<glyph unicode="5" glyph-name="five" horiz-adv-x="550" d="M278 310Q375 310 442 246T509 84Q509 -19 439 -84T267 -149Q192 -149 132 -111T41 -9L77 12Q105 -40 156 -71T267 -103Q348 -103 403 -51T458 84Q458 162 405 213T273 264Q222 264 177 242T103 177H55L134
571H474V524H172L117 243Q178 310 278 310Z" />
<glyph unicode="6" glyph-name="six" horiz-adv-x="605" d="M560 334T560 233T488 61T310 -10Q198 -10 128 68T57 279Q57 495 126 605T315 715Q386 715 442 678T525 577L490 550Q471 604 423 637T315 670Q220 670 164 580T106 331Q129 396 186 435T316 475Q418
475 489 405ZM230 35T312 35T452 93T511 233T452 373T311 432T170 374T111 233Q111 152 170 94Z" />
<glyph unicode="7" glyph-name="seven" horiz-adv-x="543" d="M110 -127L448 536H48V583H527L167 -127H110Z" />
<glyph unicode="8" glyph-name="eight" horiz-adv-x="594" d="M540 194Q540 104 468 49T294 -7Q189 -7 121 52T53 197Q53 263 98 312T204 381Q150 401 115 441T79 533Q79 614 145 662T297 710T448 663T515 534Q515 481 479 441T388 381Q454 359 497 310T540 194ZM489
198Q489 270 429 314T295 359T163 313T104 197Q104 126 164 82T298 37T430 82T489 198ZM129 531Q129 472 181 436T296 400T411 436T464 533T414 628T295 664Q228 664 179 628T129 531Z" />
<glyph unicode="9" glyph-name="nine" horiz-adv-x="589" d="M39 227T39 328T111 500T289 571Q401 571 471 493T542 282Q542 66 473 -44T284 -154Q213 -154 157 -117T74 -16L109 11Q128 -43 176 -76T284 -109Q379 -109 435 -19T493 230Q470 165 413 126T283 86Q181
86 110 156ZM369 526T287 526T147 468T88 328T147 188T288 129T429 187T488 328Q488 409 429 467Z" />
<glyph unicode=":" glyph-name="colon" horiz-adv-x="185" d="M114 432H71V517H114V432ZM114 0H71V85H114V0Z" />
<glyph unicode=";" glyph-name="semicolon" horiz-adv-x="201" d="M125 432H81V517H125V432ZM63 -54V-14Q81 -14 81 4V85H125V-2Q125 -28 107 -41T63 -54Z" />
<glyph unicode="&lt;" glyph-name="less" horiz-adv-x="505" d="M34 243V273L452 524V470L107 259L452 48V-7L34 243Z" />
<glyph unicode="=" glyph-name="equal" horiz-adv-x="443" d="M371 208H72V246H371V208ZM371 306H72V344H371V306Z" />
<glyph unicode="&gt;" glyph-name="greater" horiz-adv-x="505" d="M471 273V243L53 -7V48L399 259L53 470V524L471 273Z" />
<glyph unicode="?" glyph-name="question" horiz-adv-x="476" d="M208 193H164Q164 266 185 305T249 370Q256 374 278 385T312 403T341 424T367 451T383 486T391 533Q391 602 348 639T244 676Q189 676 143 646T72 568L36 590Q62 650 120 684T244 719Q323 719 379
670T436 530Q436 498 426 471T405 428T368 393T330 368T286 346Q246 326 227 296T208 193ZM209 0H165V98H209V0Z" />
<glyph unicode="@" glyph-name="at" horiz-adv-x="823" d="M419 603Q569 603 674 495T780 222Q780 199 778 175T768 114T745 51T702 4T636 -16Q592 -16 577 8T556 79Q527 48 483 28T388 8Q320 8 280 44T239 139Q239 186 267 217T335 259T423 270Q490 270 553 247Q553
330 525 374T426 418Q350 418 284 370L269 401Q348 453 430 453Q471 453 501 441T547 410T573 362T585 308T588 249V111Q588 61 598 38T640 15T693 36T727 91T744 158T750 223Q750 370 654 472T418 574Q280 574 181 476T82 230Q82 85 178 -16T415 -117Q494 -117
568 -79L579 -106Q502 -146 414 -146Q264 -146 158 -38T52 230Q52 392 161 497T419 603ZM484 64Q525 83 538 110T552 173V215Q548 215 528 221T479 233T419 238Q357 238 316 215T275 141Q275 96 307 69T389 42T484 64Z" />
<glyph unicode="A" glyph-name="A" horiz-adv-x="681" d="M72 0H18L320 710H362L664 0H609L510 234H171L72 0ZM496 276L341 648L183 276H496Z" />
<glyph unicode="B" glyph-name="B" horiz-adv-x="665" d="M617 184Q617 106 561 53T426 0H94V710H425Q497 710 542 655T587 529Q587 475 560 430T485 364Q545 346 581 297T617 184ZM566 191Q566 249 528 293T433 337H145V46H426Q484 46 525 90T566 191ZM411 664H145V380H405Q461
380 499 423T537 522Q537 581 502 622T411 664Z" />
<glyph unicode="C" glyph-name="C" horiz-adv-x="694" d="M47 360Q47 448 85 527T202 660T383 714Q474 714 542 672T644 559L602 535Q568 604 508 635T379 667Q293 667 227 620T130 504T98 357Q98 230 181 136T382 41Q451 41 516 76T616 180L659 159Q625 82 545
38T378 -6Q238 -6 143 106T47 360Z" />
<glyph unicode="D" glyph-name="D" horiz-adv-x="718" d="M330 0H94V710H330Q492 710 579 611T667 356Q667 194 576 97T330 0ZM616 356Q616 494 540 579T330 664H145V46H330Q466 46 541 132T616 356Z" />
<glyph unicode="E" glyph-name="E" horiz-adv-x="615" d="M145 46H567V0H94V710H558V664H145V385H506V341H145V46Z" />
<glyph unicode="F" glyph-name="F" horiz-adv-x="589" d="M145 0H94V710H556V664H145V382H494V338H145V0Z" />
<glyph unicode="G" glyph-name="G" horiz-adv-x="725" d="M619 0V110Q516 -5 381 -5Q288 -5 210 48T90 183T48 356Q48 450 89 532T206 664T374 715Q568 715 645 560L604 535Q534 668 373 668Q252 668 176 574T99 355Q99 228 182 135T384 42Q513 42 619 166V304H458V345H664V0H619Z"
/>
<glyph unicode="H" glyph-name="H" horiz-adv-x="738" d="M593 710H644V0H593V340H145V0H94V710H145V386H593V710Z" />
<glyph unicode="I" glyph-name="I" horiz-adv-x="239" d="M145 0H94V709H145V0Z" />
<glyph unicode="J" glyph-name="J" horiz-adv-x="484" d="M20 33L36 74Q93 36 174 36Q219 36 251 50T301 88T330 154T344 239T347 349V709H398V349Q398 277 394 228T377 130T339 53T274 7T174 -11Q84 -11 20 33Z" />
<glyph unicode="K" glyph-name="K" horiz-adv-x="634" d="M145 0H94V709H145V279L559 710H618L323 399L633 0H575L290 368L145 219V0Z" />
<glyph unicode="L" glyph-name="L" horiz-adv-x="591" d="M569 0H94V710H145V46H569V0Z" />
<glyph unicode="M" glyph-name="M" horiz-adv-x="882" d="M788 0H737V614L457 135H425L145 614V0H94V710H145L441 202L737 710H788V0Z" />
<glyph unicode="N" glyph-name="N" horiz-adv-x="776" d="M635 0L145 614V0H94V710H133L631 85V709H682V0H635Z" />
<glyph unicode="O" glyph-name="O" horiz-adv-x="760" d="M380 -5Q237 -4 143 104T48 355Q48 499 145 607T381 715Q476 715 553 662T671 526T712 355Q712 209 616 102T380 -5ZM99 355Q99 229 179 136T380 42Q502 42 581 137T661 355Q661 480 580 574T380 668Q258
668 179 573T99 355Z" />
<glyph unicode="P" glyph-name="P" horiz-adv-x="622" d="M145 0H94V710H386Q473 710 533 642T593 490Q593 401 537 335T393 268H145V0ZM145 664V315H390Q457 315 499 367T541 490Q541 560 495 612T384 664H145Z" />
<glyph unicode="Q" glyph-name="Q" horiz-adv-x="760" d="M636 0L580 67Q492 -5 380 -5Q237 -4 143 104T48 355Q48 499 145 607T381 715Q476 715 553 662T671 526T712 355Q712 203 609 95L688 0H636ZM380 42Q475 42 549 105L465 206H518L578 133Q661 227 661 355Q661
480 580 574T380 668Q258 668 179 573T99 355Q99 229 179 136T380 42Z" />
<glyph unicode="R" glyph-name="R" horiz-adv-x="656" d="M145 0H94V710H390Q477 710 536 643T596 490Q596 410 550 349T429 276L606 0H547L375 268H145V0ZM145 664V315H394Q460 315 502 367T545 490Q545 559 499 611T387 664H145Z" />
<glyph unicode="S" glyph-name="S" horiz-adv-x="611" d="M535 632L509 592Q440 669 314 669Q213 669 164 631T115 523Q115 459 160 431T323 378Q387 364 428 351T504 315T556 261T573 182Q573 91 505 43T319 -6Q153 -6 38 100L65 141Q162 39 321 39Q415 39 467
74T519 176T468 275T297 334Q171 360 117 397T63 516Q63 610 131 662T314 715Q447 715 535 632Z" />
<glyph unicode="T" glyph-name="T" horiz-adv-x="613" d="M592 710V664H332V0H281V664H21V710H592Z" />
<glyph unicode="U" glyph-name="U" horiz-adv-x="757" d="M378 42Q447 42 497 68T573 141T612 239T624 353V710H675V353Q675 294 666 243T634 145T578 66T494 14T379 -5Q298 -5 239 25T146 107T98 220T83 353V710H134V353Q134 290 146 238T184 140T260 68T378 42Z" />
<glyph unicode="V" glyph-name="V" horiz-adv-x="678" d="M15 710H68L339 64L609 710H663L362 0H316L15 710Z" />
<glyph unicode="W" glyph-name="W" horiz-adv-x="1044" d="M490 406L365 705H415L521 447L627 705H677L552 406L701 60L973 710H1029L725 0H678L522 365L365 0H318L15 710H70L343 60L490 406Z" />
<glyph unicode="X" glyph-name="X" horiz-adv-x="627" d="M7 710H66L314 387L562 710H620L342 350L612 0H554L314 313L74 0H15L285 350L7 710Z" />
<glyph unicode="Y" glyph-name="Y" horiz-adv-x="631" d="M11 710H67L315 317L565 710H621L341 268V0H290V270L11 710Z" />
<glyph unicode="Z" glyph-name="Z" horiz-adv-x="625" d="M29 0V42L533 664H35V710H594V668L92 46H592V0H29Z" />
<glyph unicode="[" glyph-name="bracketleft" horiz-adv-x="234" d="M188 -40H87V740H188V697H135V3H188V-40Z" />
<glyph unicode="\" glyph-name="backslash" horiz-adv-x="550" d="M28 710H86L521 0H464L28 710Z" />
<glyph unicode="]" glyph-name="bracketright" horiz-adv-x="234" d="M147 -40H46V3H99V697H46V740H147V-40Z" />
<glyph unicode="^" glyph-name="asciicircum" horiz-adv-x="529" d="M90 303H46L244 710H287L484 303H438L265 659L90 303Z" />
<glyph unicode="_" glyph-name="underscore" horiz-adv-x="424" d="M405 -46H19V0H405V-46Z" />
<glyph unicode="`" glyph-name="grave" horiz-adv-x="213" d="M134 629L49 730H106L168 645L134 629Z" />
<glyph unicode="a" glyph-name="a" horiz-adv-x="539" d="M206 -10Q133 -10 84 36T34 151T95 262T251 305Q339 305 413 277V328Q413 402 371 445T257 489Q178 489 90 427L70 461Q171 529 260 529Q354 529 408 474T463 324V70Q463 45 484 45V0Q477 -1 466 -1Q447
-1 433 11T418 44V87Q382 41 327 16T206 -10ZM216 30Q274 30 323 51T396 110Q413 130 413 150V242Q337 270 257 270Q179 270 131 238T83 154T121 66T216 30Z" />
<glyph unicode="b" glyph-name="b" horiz-adv-x="611" d="M320 -10Q260 -10 207 21T122 104V0H77V730H127V407Q210 529 330 529Q436 529 502 447T568 258Q568 149 496 70T320 -10ZM310 35Q398 35 457 103T517 258Q517 349 461 416T319 484Q256 484 206 445T127
346V174Q133 119 192 77T310 35Z" />
<glyph unicode="c" glyph-name="c" horiz-adv-x="546" d="M42 150T42 262T115 451T299 529Q369 529 423 497T505 408L456 392Q433 435 390 459T296 484Q210 484 152 420T93 262Q93 169 153 102T297 35Q351 35 400 64T461 131L510 117Q490 62 431 26T300 -10Q191
-10 117 70Z" />
<glyph unicode="d" glyph-name="d" horiz-adv-x="616" d="M292 -10Q186 -10 114 71T42 259Q42 370 110 449T281 529Q346 529 399 495T484 407V730H534V70Q534 45 555 45V0Q549 -1 538 -1Q517 -1 503 12T489 44V104Q458 52 404 21T292 -10ZM301 35Q359 35 418 77T484
175V346Q463 403 406 443T292 484Q205 484 149 416T93 258Q93 168 154 102T301 35Z" />
<glyph unicode="e" glyph-name="e" horiz-adv-x="584" d="M299 -10Q191 -10 117 70T42 262Q42 373 115 451T297 529Q406 529 478 451T552 262Q552 258 552 250T551 240H94Q101 150 160 90T301 30Q356 30 404 58T471 130L515 118Q492 62 432 26T299 -10ZM93 280H503Q496
371 438 429T297 488Q215 488 157 429T93 280Z" />
<glyph unicode="f" glyph-name="f" horiz-adv-x="336" d="M153 0H103V418H30V459H103V537Q103 632 142 686T251 740Q314 740 354 707L336 671Q306 696 259 696Q208 696 181 655T153 538V459H301V418H153V0Z" />
<glyph unicode="g" glyph-name="g" horiz-adv-x="611" d="M289 -8Q184 -8 114 72T43 259Q43 369 111 449T284 529Q403 529 489 407V520H534V-10Q534 -111 464 -167T289 -223Q130 -223 58 -103L92 -80Q122 -131 174 -156T289 -182Q373 -182 428 -137T484 -10V104Q452
54 399 23T289 -8ZM301 35Q365 35 421 79T484 175V346Q461 406 407 445T292 484Q203 484 148 415T93 258Q93 168 154 102T301 35Z" />
<glyph unicode="h" glyph-name="h" horiz-adv-x="573" d="M502 299V0H452V290Q452 483 323 483Q259 483 203 437T127 322V0H77V730H127V396Q159 457 216 493T337 529Q502 529 502 299Z" />
<glyph unicode="i" glyph-name="i" horiz-adv-x="204" d="M127 0H77V520H127V0ZM127 638H77V730H127V638Z" />
<glyph unicode="j" glyph-name="j" horiz-adv-x="204" d="M-19 -177Q-88 -177 -128 -140L-101 -107Q-73 -131 -24 -131Q15 -131 46 -102T77 -30V520H127V-28Q127 -91 82 -134T-19 -177ZM127 638H77V730H127V638Z" />
<glyph unicode="k" glyph-name="k" horiz-adv-x="519" d="M508 0H453L250 278L127 165V0H77V730H127V220L443 519H501L283 308L508 0Z" />
<glyph unicode="l" glyph-name="l" horiz-adv-x="249" d="M80 88V730H131V103Q131 74 147 57T193 40Q220 40 248 50L258 10Q217 -6 173 -6Q131 -6 106 19T80 88Z" />
<glyph unicode="m" glyph-name="m" horiz-adv-x="912" d="M841 299V0H791V290Q791 483 667 483Q603 483 554 438T484 321V0H434V290Q434 389 404 436T311 483T198 439T127 322V0H77V520H123V396Q156 459 208 494T323 529Q387 529 428 491T478 388Q554 529 682
529Q841 529 841 299Z" />
<glyph unicode="n" glyph-name="n" horiz-adv-x="573" d="M502 299V0H452V290Q452 390 423 436T332 483Q266 483 207 437T127 322V0H77V520H123V396Q155 456 216 492T347 529Q429 529 465 471T502 299Z" />
<glyph unicode="o" glyph-name="o" horiz-adv-x="592" d="M296 -10Q188 -10 115 69T42 259Q42 370 116 449T296 529Q403 529 477 450T551 259Q551 149 477 70T296 -10ZM93 257Q93 165 152 100T296 35Q379 35 439 101T500 260Q500 351 440 417T296 484T153 417T93 257Z" />
<glyph unicode="p" glyph-name="p" horiz-adv-x="611" d="M330 -10Q266 -10 214 24T127 112V-213H77V520H122V416Q155 467 208 498T320 529Q425 529 496 447T568 259Q568 147 501 69T330 -10ZM319 35Q406 35 461 103T517 259Q517 349 457 416T310 484Q253 484
193 441T127 344V173Q152 114 205 75T319 35Z" />
<glyph unicode="q" glyph-name="q" horiz-adv-x="611" d="M280 -10Q176 -10 109 70T42 259Q42 368 115 448T291 529Q350 529 403 497T488 415V520H534V-141Q534 -166 555 -167V-211Q549 -212 537 -212Q514 -212 499 -197T484 -159V112Q403 -10 280 -10ZM293 35Q355
35 404 72T484 169V339Q476 396 418 440T299 484Q211 484 152 415T93 258Q93 167 150 101T293 35Z" />
<glyph unicode="r" glyph-name="r" horiz-adv-x="341" d="M323 522V475Q252 473 200 433T127 325V0H77V520H124V392Q151 447 196 481T291 521Q298 521 309 521T323 522Z" />
<glyph unicode="s" glyph-name="s" horiz-adv-x="481" d="M243 -10Q114 -10 32 70L57 104Q140 30 243 30Q311 30 352 59T394 138Q394 183 358 203T228 246Q130 269 93 293T56 375Q56 450 110 489T247 529Q306 529 354 509T428 456L400 429Q349 489 244 489Q182
489 143 462T104 382Q104 340 132 323T240 287Q285 276 312 269T367 249T410 224T433 190T443 143Q443 73 389 32T243 -10Z" />
<glyph unicode="t" glyph-name="t" horiz-adv-x="318" d="M296 65L311 25Q259 -6 202 -6Q159 -6 129 19T99 87V479H26V520H99V698H149V520H271V479H149V99Q149 71 168 56T215 41Q260 41 296 65Z" />
<glyph unicode="u" glyph-name="u" horiz-adv-x="587" d="M238 -10Q71 -10 71 220V520H121V227Q121 35 252 35Q318 35 375 78T455 192V520H505V70Q505 45 526 45V0Q518 -1 508 -1Q487 -1 474 11T460 44V123Q426 61 367 26T238 -10Z" />
<glyph unicode="v" glyph-name="v" horiz-adv-x="526" d="M289 0H237L20 520H73L264 50L457 520H506L289 0Z" />
<glyph unicode="w" glyph-name="w" horiz-adv-x="807" d="M540 55L738 520H788L563 0H521L404 275L287 0H244L20 520H69L268 55L377 311L288 519H332L404 347L475 519H519L431 311L540 55Z" />
<glyph unicode="x" glyph-name="x" horiz-adv-x="493" d="M15 520H71L238 305L246 291L255 305L422 520H477L275 259L477 0H421L255 214L246 227L238 214L72 0H16L218 259L15 520Z" />
<glyph unicode="y" glyph-name="y" horiz-adv-x="542" d="M113 -222V-177Q152 -177 166 -170Q175 -165 190 -134T248 0L16 520H69L275 49L468 520H517L232 -164Q218 -198 195 -210T133 -223Q119 -223 113 -222Z" />
<glyph unicode="z" glyph-name="z" horiz-adv-x="485" d="M29 0V36L398 481H36V520H453V484L86 39H452V0H29Z" />
<glyph unicode="{" glyph-name="braceleft" horiz-adv-x="238" d="M194 697H139V420Q139 383 114 360Q139 339 139 300V12H194V-31H115Q106 -31 99 -24T92 -1V289Q92 309 83 324T57 341V381Q75 381 83 398T92 431V710Q92 727 99 733T115 740H194V697Z" />
<glyph unicode="|" glyph-name="bar" horiz-adv-x="215" d="M130 -130H85V775H130V-130Z" />
<glyph unicode="}" glyph-name="braceright" horiz-adv-x="238" d="M100 697H45V740H124Q128 740 132 738T142 729T147 710V431Q147 415 155 398T182 381V341Q147 337 147 289V-1Q147 -16 140 -23T124 -31H45V12H100V300Q100 339 125 360Q100 383 100 420V697Z" />
<glyph unicode="~" glyph-name="asciitilde" horiz-adv-x="493" d="M68 245Q68 250 73 264T90 295T121 326T167 340Q196 340 246 310T323 280Q345 280 362 292T386 316T392 333H426Q426 327 418 308T383 267T322 245T237 274T166 304Q146 304 130 289T108 261T102
245H68Z" />
</font>
</defs>
</svg>
