<?xml version="1.0" standalone="no"?> <!DOCTYPE svg PUBLIC "-//W3C//DTD SVG 1.0//EN" "http://www.w3.org/TR/2001/REC-SVG-20010904/DTD/svg10.dtd" > <svg xmlns="http://www.w3.org/2000/svg" width="100%" height="100%">
<defs >
<font id="ralewaybold" horiz-adv-x="482" ><font-face
    font-family="Raleway"
    units-per-em="1000"
    panose-1="2 11 0 3 3 1 1 6 0 3"
    ascent="940"
    descent="-234"
    alphabetic="0" />
<missing-glyph horiz-adv-x="0" />
<glyph unicode=" " glyph-name="space" horiz-adv-x="239" />
<glyph unicode="!" glyph-name="exclam" horiz-adv-x="289" d="M212 267H78V717H212V267ZM212 0H78V151H212V0Z" />
<glyph unicode="&quot;" glyph-name="quotedbl" horiz-adv-x="386" d="M171 539H57V723H171V539ZM329 539H215V723H329V539Z" />
<glyph unicode="#" glyph-name="numbersign" horiz-adv-x="724" d="M686 518V424H541L508 287H639V187H484L438 0H330L377 187H257L212 0H104L150 187H38V287H174L207 424H85V518H230L277 710H385L337 518H457L503 710H611L564 518H686ZM281 287H401L433 424H314L281
287Z" />
<glyph unicode="$" glyph-name="dollar" horiz-adv-x="634" d="M570 636L509 524Q493 541 444 564T342 592V419L367 413Q484 383 539 339T595 203Q595 100 527 49T352 -7V-117H292V-6Q144 5 34 84L95 203Q116 181 176 153T301 118V290L264 300Q158 329 111 371T63
492Q63 590 126 647T292 713V815H352V714Q466 705 570 636ZM448 189Q448 221 422 241T342 278V116Q448 119 448 189ZM205 514Q205 482 227 464T301 431V593Q205 587 205 514Z" />
<glyph unicode="%" glyph-name="percent" horiz-adv-x="793" d="M203 417Q135 417 87 461T38 569Q38 632 86 676T203 720Q273 720 320 676T368 569Q368 505 321 461T203 417ZM174 484T203 484T253 509T274 569Q274 603 253 628T203 653T153 628T132 569Q132 534
153 509ZM589 -10Q521 -10 473 34T425 141Q425 205 473 249T589 293Q659 293 706 249T754 141Q754 78 707 34T589 -10ZM589 57Q619 57 640 82T661 141Q661 176 640 201T589 226T539 201T518 141Q518 107 539 82T589 57ZM156 -7L95 47L377 376L637 718L698 664L422
342L156 -7Z" />
<glyph unicode="&amp;" glyph-name="ampersand" horiz-adv-x="716" d="M712 0H536L480 59Q391 -10 280 -10Q174 -10 108 51T41 201Q41 309 163 397Q121 445 105 478T88 549Q88 625 143 672T282 719Q361 719 416 678T471 562Q471 465 350 379L487 236Q519 305 519
389H628Q627 252 565 154L712 0ZM294 95Q356 95 408 135L244 309Q170 255 170 200Q170 156 205 126T294 95ZM210 553Q210 536 221 520T267 466Q311 494 330 514T349 560Q349 587 330 603T282 620Q250 620 230 601T210 553Z" />
<glyph unicode="&apos;" glyph-name="quotesingle" horiz-adv-x="222" d="M168 545H54V723H168V545Z" />
<glyph unicode="(" glyph-name="parenleft" horiz-adv-x="308" d="M34 347Q34 440 72 537T182 757L285 714Q242 649 201 542T159 344Q159 204 281 -4L184 -53Q34 168 34 347Z" />
<glyph unicode=")" glyph-name="parenright" horiz-adv-x="308" d="M274 347Q274 168 124 -53L26 -4Q149 203 149 344Q149 435 108 542T23 714L126 757Q198 635 236 538T274 347Z" />
<glyph unicode="*" glyph-name="asterisk" horiz-adv-x="345" d="M127 486L75 520L122 591L51 613L69 671L142 640L137 717H208L203 640L275 671L293 613L223 591L270 520L218 486L173 561L127 486Z" />
<glyph unicode="+" glyph-name="plus" horiz-adv-x="424" d="M272 409H375V301H272V188H152V301H48V409H152V522H272V409Z" />
<glyph unicode="," glyph-name="comma" horiz-adv-x="236" d="M32 -113V-18Q65 -18 65 13V144H175V-11Q175 -65 132 -89T32 -113Z" />
<glyph unicode="-" glyph-name="hyphen" horiz-adv-x="417" d="M360 214H57V335H360V214Z" />
<glyph unicode="." glyph-name="period" horiz-adv-x="224" d="M167 0H57V144H167V0Z" />
<glyph unicode="/" glyph-name="slash" horiz-adv-x="698" d="M523 710H672L176 0H28L523 710Z" />
<glyph unicode="0" glyph-name="zero" horiz-adv-x="615" d="M566 293Q566 162 493 76T308 -10Q196 -10 123 75T49 293T122 511T308 597Q419 597 492 511T566 293ZM431 213T431 293T397 423T308 474Q252 474 218 424T183 293Q183 213 217 163T308 113Q362 113 396 163Z" />
<glyph unicode="1" glyph-name="one" horiz-adv-x="492" d="M342 121H469V0H63V121H205V424Q187 400 134 376T43 351V476Q77 476 136 513T205 571H342V121Z" />
<glyph unicode="2" glyph-name="two" horiz-adv-x="569" d="M523 0H41Q41 93 74 151T198 260Q216 270 241 283T279 304T309 321T334 337T351 353T363 371T366 391Q366 422 341 443T273 464Q198 464 133 387L47 486Q80 521 148 551T297 581Q397 581 454 534T512
411Q512 378 500 350T465 301T424 266T377 237Q342 218 323 206T275 170T236 121H523V0Z" />
<glyph unicode="3" glyph-name="three" horiz-adv-x="559" d="M381 236Q444 225 482 177T521 58Q521 -36 451 -91T261 -147Q108 -147 29 -51L105 44Q158 -25 256 -25Q382 -25 382 73Q382 181 233 181H205V281H236Q296 281 330 308T365 379Q365 418 338 439T265
460Q172 460 123 380L39 474Q69 520 135 548T280 576Q382 576 445 527T508 399Q508 339 473 293T381 236Z" />
<glyph unicode="4" glyph-name="four" horiz-adv-x="565" d="M447 -127H313V22H21V141L355 571H447V142H535V22H447V-127ZM328 368L155 142H328V368Z" />
<glyph unicode="5" glyph-name="five" horiz-adv-x="555" d="M289 319Q390 319 456 255T523 91Q523 -15 449 -82T261 -149Q184 -149 122 -116T28 -26L105 54Q134 15 175 -8T262 -31Q316 -31 350 2T385 88Q385 139 353 171T270 204Q200 204 163 148H46L128 571H478V449H225L197
290Q224 319 289 319Z" />
<glyph unicode="6" glyph-name="six" horiz-adv-x="607" d="M567 237Q567 133 493 62T308 -10Q187 -10 117 76T46 316Q46 508 119 611T321 715Q460 715 541 603L464 519Q440 557 402 578T319 599Q252 599 212 545T171 396Q191 432 230 453T320 474Q425 474 496
406T567 237ZM255 103T308 103T400 142T439 237Q439 291 401 329T308 367T216 329T177 237T216 143Z" />
<glyph unicode="7" glyph-name="seven" horiz-adv-x="574" d="M67 -127L360 461H37V583H571L218 -127H67Z" />
<glyph unicode="8" glyph-name="eight" horiz-adv-x="605" d="M560 210Q560 113 485 52T301 -9Q194 -9 119 54T44 215Q44 270 77 313T156 380Q117 399 92 435T66 513Q66 602 139 656T302 710Q392 710 465 657T539 514Q539 472 513 435T448 380Q496 356 528 312T560
210ZM424 218Q424 266 388 295T302 324Q252 324 216 295T180 218Q180 172 217 142T303 112Q351 112 387 142T424 218ZM202 509Q202 470 232 448T302 425T372 448T403 510Q403 546 374 568T302 591T231 568T202 509Z" />
<glyph unicode="9" glyph-name="nine" horiz-adv-x="589" d="M32 324Q32 428 106 499T291 571Q412 571 482 485T553 245Q553 53 480 -50T278 -154Q139 -154 58 -42L135 42Q159 4 197 -17T280 -38Q347 -38 387 16T428 165Q408 129 369 108T279 87Q174 87 103 155T32
324ZM344 458T291 458T199 419T160 324Q160 270 198 232T291 194T383 232T422 324T383 418Z" />
<glyph unicode=":" glyph-name="colon" horiz-adv-x="243" d="M176 374H67V518H176V374ZM176 0H67V144H176V0Z" />
<glyph unicode=";" glyph-name="semicolon" horiz-adv-x="250" d="M181 374H71V518H181V374ZM38 -113V-18Q71 -18 71 13V144H181V-11Q181 -65 138 -89T38 -113Z" />
<glyph unicode="&lt;" glyph-name="less" horiz-adv-x="509" d="M32 223V288L454 543V401L227 259L454 123V-27L32 223Z" />
<glyph unicode="=" glyph-name="equal" horiz-adv-x="437" d="M375 144H62V231H375V144ZM375 321H62V408H375V321Z" />
<glyph unicode="&gt;" glyph-name="greater" horiz-adv-x="509" d="M477 288V223L55 -27V123L282 259L55 401V543L477 288Z" />
<glyph unicode="?" glyph-name="question" horiz-adv-x="490" d="M234 233H124Q124 287 141 324T206 389Q210 391 234 404T270 426T301 450T327 484T336 524Q336 563 308 586T241 610Q170 610 123 530L36 590Q62 650 118 684T245 719Q330 719 391 669T453 522Q453
462 427 424T348 354Q339 348 317 336T284 316T260 296T240 268T234 233ZM237 0H126V138H237V0Z" />
<glyph unicode="@" glyph-name="at" horiz-adv-x="836" d="M423 603Q579 603 688 501T797 223Q797 199 795 175T784 115T760 51T714 4T642 -16Q558 -16 547 66Q476 -5 375 -5Q300 -5 260 34T219 137Q219 177 235 206T280 252T341 277T410 285Q474 285 525 262Q525
322 500 353T410 385Q331 385 277 341L252 412Q326 462 424 462Q473 462 508 448T562 415T590 365T603 310T605 253V157Q605 102 614 73T656 44Q689 44 709 79T735 152T741 227Q741 365 651 457T418 549Q278 549 189 459T100 230Q100 93 186 1T410 -92Q479 -92
564 -54L581 -106Q500 -146 406 -146Q254 -146 149 -41T43 231Q43 345 97 431T236 560T423 603ZM470 90Q524 116 524 169V199Q467 220 412 220Q362 220 332 202T301 145Q301 113 322 91T383 68Q424 68 470 90Z" />
<glyph unicode="A" glyph-name="A" horiz-adv-x="675" d="M148 0H2L282 710H394L673 0H527L462 177H213L148 0ZM437 274L338 561L236 274H437Z" />
<glyph unicode="B" glyph-name="B" horiz-adv-x="680" d="M646 183Q646 97 581 49T417 0H74V710H454Q526 710 571 655T616 529Q616 476 589 431T514 364Q576 346 611 299T646 183ZM507 209Q507 248 483 276T424 304H212V117H417Q454 117 480 144T507 209ZM402
592H212V413H396Q432 413 456 437T480 503Q480 543 458 567T402 592Z" />
<glyph unicode="C" glyph-name="C" horiz-adv-x="670" d="M32 360Q32 449 71 528T189 661T372 714Q464 714 534 672T639 559L533 486Q510 541 465 566T368 592Q276 592 224 521T171 356Q171 259 228 188T371 116Q422 116 468 143T537 224L650 159Q619 83 537 39T367
-6Q225 -6 129 106T32 360Z" />
<glyph unicode="D" glyph-name="D" horiz-adv-x="718" d="M332 0H74V710H332Q499 710 590 610T682 356Q682 194 587 97T332 0ZM543 356Q543 461 487 525T332 589H212V121H332Q431 121 487 186T543 356Z" />
<glyph unicode="E" glyph-name="E" horiz-adv-x="604" d="M212 121H567V0H74V710H558V589H212V418H511V306H212V121Z" />
<glyph unicode="F" glyph-name="F" horiz-adv-x="571" d="M212 0H74V710H551V589H212V406H494V294H212V0Z" />
<glyph unicode="G" glyph-name="G" horiz-adv-x="709" d="M550 0V80Q468 -5 361 -5Q272 -5 196 46T77 181T33 359Q33 506 130 610T370 715Q465 715 535 674T640 560L537 484Q512 536 466 564T365 593Q280 593 226 524T172 355Q172 254 229 186T373 117Q471 117
550 214V264H407V365H664V0H550Z" />
<glyph unicode="H" glyph-name="H" horiz-adv-x="745" d="M534 710H671V0H534V303H212V0H74V710H212V423H534V710Z" />
<glyph unicode="I" glyph-name="I" horiz-adv-x="286" d="M212 0H74V709H212V0Z" />
<glyph unicode="J" glyph-name="J" horiz-adv-x="495" d="M11 33L42 145Q89 111 165 111Q244 111 267 164T291 349V709H429V349Q429 277 424 228T403 130T359 53T283 7T165 -11Q75 -11 11 33Z" />
<glyph unicode="K" glyph-name="K" horiz-adv-x="667" d="M212 0H74V709H212V363L519 710H662L390 395L679 0H533L307 317L212 214V0Z" />
<glyph unicode="L" glyph-name="L" horiz-adv-x="589" d="M574 0H74V710H212V121H574V0Z" />
<glyph unicode="M" glyph-name="M" horiz-adv-x="865" d="M791 0H653V470L470 120H395L212 470V0H74V710H222L432 306L644 710H791V0Z" />
<glyph unicode="N" glyph-name="N" horiz-adv-x="763" d="M577 0L212 455V0H74V710H181L551 244V709H689V0H577Z" />
<glyph unicode="O" glyph-name="O" horiz-adv-x="740" d="M369 -5Q272 -5 194 47T74 181T33 355Q33 500 131 607T372 715Q469 715 547 662T666 526T707 353Q707 209 610 102T369 -5ZM172 355Q172 258 226 188T371 117T514 189T568 355Q568 451 513 521T370 592Q280
592 226 521T172 355Z" />
<glyph unicode="P" glyph-name="P" horiz-adv-x="621" d="M212 0H74V710H375Q470 710 535 638T601 474Q601 380 539 309T380 238H212V0ZM212 589V359H372Q411 359 436 390T461 474T433 557T366 589H212Z" />
<glyph unicode="Q" glyph-name="Q" horiz-adv-x="742" d="M590 0L547 48Q465 -5 369 -5Q223 -4 128 104T33 355Q33 500 131 607T372 715Q469 715 547 662T666 526T707 353Q707 216 620 113L721 0H590ZM371 117Q422 117 463 142L356 263H487L531 213Q568 278 568
355Q568 452 513 522T370 593Q280 593 226 521T172 355Q172 258 226 188T371 117Z" />
<glyph unicode="R" glyph-name="R" horiz-adv-x="674" d="M212 0H74V710H388Q483 710 548 638T614 474Q614 405 579 349T486 267L653 0H497L348 238H212V0ZM212 589V359H385Q423 359 449 392T475 474T446 555T379 589H212Z" />
<glyph unicode="S" glyph-name="S" horiz-adv-x="615" d="M559 636L498 524Q480 544 422 569T307 594Q194 594 194 514Q194 474 228 456T356 413Q473 383 528 339T584 203Q584 95 510 44T321 -8Q153 -8 23 84L84 203Q109 178 180 147T323 116Q437 116 437 189Q437
231 397 251T262 298Q256 299 253 300Q147 329 100 371T52 492Q52 597 125 656T311 715Q442 715 559 636Z" />
<glyph unicode="T" glyph-name="T" horiz-adv-x="620" d="M605 710V589H379V0H241V589H14V710H605Z" />
<glyph unicode="U" glyph-name="U" horiz-adv-x="748" d="M373 117Q436 117 476 152T532 236T547 348V710H684V348Q684 192 607 94T374 -5Q292 -5 230 24T133 103T80 214T63 348V710H201V348Q201 248 242 183T373 117Z" />
<glyph unicode="V" glyph-name="V" horiz-adv-x="673" d="M0 710H145L337 173L527 710H672L395 0H279L0 710Z" />
<glyph unicode="W" glyph-name="W" horiz-adv-x="1053" d="M438 385L319 708H446L526 473L606 708H734L613 385L703 158L904 710H1054L765 0H649L526 298L403 0H287L-1 710H148L350 158L438 385Z" />
<glyph unicode="X" glyph-name="X" horiz-adv-x="644" d="M-4 710H146L323 446L499 710H648L395 350L640 0H491L323 254L154 0H4L249 350L-4 710Z" />
<glyph unicode="Y" glyph-name="Y" horiz-adv-x="644" d="M-4 710H146L321 368L499 710H648L390 248V0H253V250L-4 710Z" />
<glyph unicode="Z" glyph-name="Z" horiz-adv-x="623" d="M28 0V104L429 589H39V710H588V606L200 121H591V0H28Z" />
<glyph unicode="[" glyph-name="bracketleft" horiz-adv-x="301" d="M259 -40H71V740H259V633H195V67H259V-40Z" />
<glyph unicode="\" glyph-name="backslash" horiz-adv-x="638" d="M26 710H175L610 0H462L26 710Z" />
<glyph unicode="]" glyph-name="bracketright" horiz-adv-x="301" d="M229 -40H42V67H105V633H42V740H229V-40Z" />
<glyph unicode="^" glyph-name="asciicircum" horiz-adv-x="587" d="M148 303H40L238 710H350L547 303H437L294 597L148 303Z" />
<glyph unicode="_" glyph-name="underscore" horiz-adv-x="382" d="M374 -121H8V0H374V-121Z" />
<glyph unicode="`" glyph-name="grave" horiz-adv-x="255" d="M140 585L47 730H171L226 611L140 585Z" />
<glyph unicode="a" glyph-name="a" horiz-adv-x="578" d="M204 -10Q127 -10 76 37T25 156Q25 231 87 278T248 325Q324 325 376 302V332Q376 384 346 412T259 440Q180 440 95 381L54 466Q155 533 272 533Q385 533 447 477T510 317V154Q510 115 546 114V0Q511 -7
482 -7Q410 -6 399 55L396 84Q324 -10 204 -10ZM242 88Q317 88 354 132Q376 149 376 170V230Q323 250 270 250Q218 250 185 227T152 167Q152 133 178 111T242 88Z" />
<glyph unicode="b" glyph-name="b" horiz-adv-x="633" d="M358 -10Q299 -10 252 17T177 91V0H60V730H194V432Q253 533 373 533Q474 533 538 454T603 260T533 68T358 -10ZM321 104Q384 104 425 149T466 259Q466 324 427 371T329 419Q286 419 250 391T194 317V192Q207
153 244 129T321 104Z" />
<glyph unicode="c" glyph-name="c" horiz-adv-x="564" d="M28 149T28 262T104 454T304 533Q387 533 448 497T541 399L410 359Q375 419 303 419Q245 419 206 375T166 262Q166 194 206 149T303 104Q339 104 369 121T412 166L543 126Q515 65 452 28T305 -10Q181 -10 105 69Z" />
<glyph unicode="d" glyph-name="d" horiz-adv-x="649" d="M277 -10Q169 -10 99 68T29 262T95 455T263 533Q319 533 366 505T439 432V730H573V154Q573 115 609 114V0Q571 -7 545 -7Q472 -6 462 55L459 91Q431 43 382 17T277 -10ZM312 104Q351 104 388 129T440 192V317Q424
360 385 389T304 419Q245 419 206 372T167 259Q167 193 208 149T312 104Z" />
<glyph unicode="e" glyph-name="e" horiz-adv-x="600" d="M304 -10Q181 -10 105 68T28 259Q28 374 104 453T305 533Q429 533 503 454T578 264Q578 236 575 219H170Q175 159 215 124T309 88Q350 88 385 107T433 159L548 127Q519 65 454 28T304 -10ZM168 306H440Q435
364 397 400T303 436T210 400T168 306Z" />
<glyph unicode="f" glyph-name="f" horiz-adv-x="381" d="M228 0H94V360H26V463H94V528Q94 625 141 682T269 740Q333 740 398 709L371 608Q336 627 298 627Q228 627 228 533V463H356V360H228V0Z" />
<glyph unicode="g" glyph-name="g" horiz-adv-x="633" d="M265 -3Q163 -3 97 74T30 262Q30 377 98 455T273 533Q391 533 456 432V524H573V25Q573 -89 492 -156T283 -223Q125 -223 37 -114L110 -43Q140 -80 186 -101T283 -122Q351 -122 395 -85T439 25V91Q413 47
366 22T265 -3ZM311 104Q353 104 388 129T439 192V317Q421 362 383 390T303 419Q243 419 205 371T166 258T208 149T311 104Z" />
<glyph unicode="h" glyph-name="h" horiz-adv-x="602" d="M547 327V0H413V294Q413 415 325 415Q287 415 248 384T194 306V0H60V730H194V427Q223 477 273 505T382 533Q547 533 547 327Z" />
<glyph unicode="i" glyph-name="i" horiz-adv-x="253" d="M194 0H60V524H194V0ZM194 597H60V730H194V597Z" />
<glyph unicode="j" glyph-name="j" horiz-adv-x="253" d="M12 -196Q-68 -196 -121 -149L-64 -58Q-41 -80 -5 -80Q22 -80 41 -62T60 -14V524H194V-4Q194 -88 142 -142T12 -196ZM194 597H60V730H194V597Z" />
<glyph unicode="k" glyph-name="k" horiz-adv-x="557" d="M561 0H418L266 227L194 156V0H60V730H194V287L404 523H547L351 301L561 0Z" />
<glyph unicode="l" glyph-name="l" horiz-adv-x="317" d="M59 121V730H193V174Q193 113 248 113Q269 113 301 126L319 19Q262 -8 191 -8Q129 -8 94 26T59 121Z" />
<glyph unicode="m" glyph-name="m" horiz-adv-x="929" d="M874 327V0H740V294Q740 415 658 415Q619 415 584 384T534 305V0H400V294Q400 415 319 415Q280 415 245 385T194 306V0H60V524H181V427Q242 533 376 533Q438 533 475 503T524 422Q589 533 717 533Q874
533 874 327Z" />
<glyph unicode="n" glyph-name="n" horiz-adv-x="602" d="M547 327V0H413V294Q413 415 330 415Q289 415 249 384T194 306V0H60V524H181V427Q210 477 265 505T389 533Q547 533 547 327Z" />
<glyph unicode="o" glyph-name="o" horiz-adv-x="605" d="M427 -10T303 -10T104 69T28 261Q28 375 103 454T303 533T502 454T577 261Q577 148 502 69ZM166 329T166 261T205 149T303 104T400 149T440 262T401 374T303 419T206 374Z" />
<glyph unicode="p" glyph-name="p" horiz-adv-x="632" d="M373 -10Q313 -10 267 17T194 92V-213H60V524H177V434Q240 533 358 533Q463 533 533 454T603 263Q603 147 538 69T373 -10ZM329 104Q388 104 427 151T466 263Q466 329 425 374T321 419Q282 419 245 394T194
331V208Q212 163 249 134T329 104Z" />
<glyph unicode="q" glyph-name="q" horiz-adv-x="632" d="M258 -10Q159 -10 94 69T29 263Q29 377 99 455T274 533Q392 533 455 433V524H572V-52Q572 -74 580 -82T608 -92V-206Q574 -212 534 -212T466 -186T438 -121V92Q379 -10 258 -10ZM308 104Q387 104 438 190V314Q427
358 388 388T306 419Q246 419 206 372T166 259Q166 193 206 149T308 104Z" />
<glyph unicode="r" glyph-name="r" horiz-adv-x="387" d="M372 530V408Q310 407 263 384T194 317V0H60V524H183V412Q210 466 254 499T345 532Q360 532 372 530Z" />
<glyph unicode="s" glyph-name="s" horiz-adv-x="508" d="M267 -10Q201 -10 132 9T17 60L71 151Q171 86 264 86Q306 86 330 101T354 144Q354 170 328 184T230 215Q125 239 84 270T43 361Q43 440 102 487T254 534Q365 534 469 469L414 386Q331 439 253 439Q215
439 192 424T168 380Q168 354 189 342T275 314Q391 286 437 253T484 156Q484 80 425 35T267 -10Z" />
<glyph unicode="t" glyph-name="t" horiz-adv-x="382" d="M348 133L375 27Q294 -9 226 -9Q166 -9 128 22T90 120V421H22V524H90V694H224V524H335V421H224V165Q224 114 275 114Q305 114 348 133Z" />
<glyph unicode="u" glyph-name="u" horiz-adv-x="622" d="M220 -10Q139 -10 97 42T55 196V524H189V225Q189 104 276 104Q317 104 353 128T412 199V524H546V154Q546 133 554 124T582 114V0Q543 -7 517 -7Q445 -7 435 55L432 98Q360 -10 220 -10Z" />
<glyph unicode="v" glyph-name="v" horiz-adv-x="543" d="M344 0H199L6 524H144L277 109L411 524H537L344 0Z" />
<glyph unicode="w" glyph-name="w" horiz-adv-x="845" d="M558 126L713 524H841L622 0H512L422 230L333 0H223L4 524H131L287 126L351 296L259 523H367L422 362L478 523H586L495 296L558 126Z" />
<glyph unicode="x" glyph-name="x" horiz-adv-x="528" d="M5 524H143L255 360L264 342L273 360L385 524H523L337 261L526 0H388L273 163L264 180L255 163L140 0H2L192 261L5 524Z" />
<glyph unicode="y" glyph-name="y" horiz-adv-x="544" d="M67 -218V-102Q98 -111 126 -111Q153 -111 170 -89T208 0L0 524H138L281 116L407 524H533L312 -104Q291 -163 245 -196T138 -229Q103 -229 67 -218Z" />
<glyph unicode="z" glyph-name="z" horiz-adv-x="490" d="M25 0V82L316 430H36V524H457V442L167 94H462V0H25Z" />
<glyph unicode="{" glyph-name="braceleft" horiz-adv-x="306" d="M265 633H210V429Q210 392 175 360Q210 328 210 291V76H265V-31H112Q89 -31 89 -1V247Q89 272 74 291T39 314V408Q59 408 74 429T89 473V710Q89 726 96 733T112 740H265V633Z" />
<glyph unicode="|" glyph-name="bar" horiz-adv-x="253" d="M183 -130H69V775H183V-130Z" />
<glyph unicode="}" glyph-name="braceright" horiz-adv-x="306" d="M97 633H42V740H195Q200 740 204 738T213 729T218 710V473Q218 451 233 430T268 408V314Q247 310 233 292T218 247V-1Q218 -17 211 -24T195 -31H42V76H97V291Q97 330 132 360Q97 392 97 429V633Z" />
<glyph unicode="~" glyph-name="asciitilde" horiz-adv-x="562" d="M54 228Q54 239 61 258T83 302T127 343T193 360Q231 360 286 333T369 306Q394 306 411 318T433 342T438 358H512Q512 350 505 332T482 289T437 246T368 228T275 254T192 280Q168 280 152 267T132
243T128 228H54Z" />
</font>
</defs>
</svg>
