<?xml version="1.0" standalone="no"?> <!DOCTYPE svg PUBLIC "-//W3C//DTD SVG 1.0//EN" "http://www.w3.org/TR/2001/REC-SVG-20010904/DTD/svg10.dtd" > <svg xmlns="http://www.w3.org/2000/svg" width="100%" height="100%">
<defs >
<font id="ralewaythin" horiz-adv-x="449" ><font-face
    font-family="Raleway"
    units-per-em="1000"
    panose-1="2 11 0 3 3 1 1 6 0 3"
    ascent="940"
    descent="-234"
    alphabetic="0" />
<missing-glyph horiz-adv-x="0" />
<glyph unicode=" " glyph-name="space" horiz-adv-x="269" />
<glyph unicode="!" glyph-name="exclam" horiz-adv-x="210" d="M115 200H95V717H115V200ZM115 0H95V84H115V0Z" />
<glyph unicode="&quot;" glyph-name="quotedbl" horiz-adv-x="202" d="M86 626H66V710H86V626ZM136 626H116V710H136V626Z" />
<glyph unicode="#" glyph-name="numbersign" horiz-adv-x="655" d="M615 501V481H497L439 241H575V221H434L381 0H360L414 221H174L121 0H100L154 221H41V241H159L217 481H81V501H222L273 710H294L242 501H482L533 710H554L502 501H615ZM179 241H419L477 481H237L179
241Z" />
<glyph unicode="$" glyph-name="dollar" horiz-adv-x="604" d="M521 630L508 616Q467 661 422 678T312 696V363Q355 354 380 348T439 330T492 306T529 275T556 233T564 178Q564 90 497 43T312 -5V-93H292V-5Q139 -1 38 105L53 118Q145 17 292 12V349Q229 363 195
373T126 402T77 450T62 523Q62 611 123 660T292 714V815H312V715Q443 714 521 630ZM544 176Q544 209 532 234T503 275T452 305T389 326T312 345V12Q420 12 482 53T544 176ZM82 524Q82 452 126 424T292 368V695Q82 688 82 524Z" />
<glyph unicode="%" glyph-name="percent" horiz-adv-x="675" d="M245 444T188 444T91 484T50 582T90 679T188 720T285 680T326 582T286 485ZM188 464Q237 464 271 499T306 582Q306 631 271 665T188 700Q139 700 105 665T70 582Q70 533 105 499T188 464ZM544 -10T487
-10T390 30T349 128Q349 185 389 225T487 266T584 226T625 128Q625 70 585 30ZM438 10T487 10T570 45T605 128T570 211T487 246Q438 246 404 211T369 128Q369 79 403 45ZM66 -1L50 11L608 711L624 699L66 -1Z" />
<glyph unicode="&amp;" glyph-name="ampersand" horiz-adv-x="640" d="M625 0H598L492 110Q407 -10 270 -10Q183 -10 118 38T53 170Q53 237 95 285T223 391Q160 458 135 498T110 574Q110 632 159 675T277 719Q341 719 383 682T426 591Q426 562 413 535T370 481T317
436T250 389L490 140Q542 228 542 333H562Q562 219 503 126L625 0ZM273 8Q400 8 479 124L235 379Q155 323 114 277T73 168Q73 92 134 50T273 8ZM130 573Q130 543 152 505T238 401Q329 463 367 502T406 589Q406 636 369 667T276 699Q215 699 173 662T130 573Z" />
<glyph unicode="&apos;" glyph-name="quotesingle" horiz-adv-x="132" d="M76 646H56V710H76V646Z" />
<glyph unicode="(" glyph-name="parenleft" horiz-adv-x="239" d="M52 345Q52 439 86 529T185 726L201 714Q149 637 110 532T71 342Q71 264 105 169T201 -14L185 -26Q52 169 52 345Z" />
<glyph unicode=")" glyph-name="parenright" horiz-adv-x="239" d="M187 345Q187 169 54 -26L38 -14Q99 73 133 168T168 342Q168 427 129 532T38 714L54 726Q118 620 152 530T187 345Z" />
<glyph unicode="*" glyph-name="asterisk" horiz-adv-x="307" d="M112 552L96 564L137 621L70 643L76 662L143 640V710H163V640L230 662L236 643L169 621L211 564L194 552L153 609L112 552Z" />
<glyph unicode="+" glyph-name="plus" horiz-adv-x="414" d="M217 365H357V345H217V195H197V345H57V365H197V515H217V365Z" />
<glyph unicode="," glyph-name="comma" horiz-adv-x="182" d="M71 -33V-13Q84 -13 84 0V64H104V2Q104 -33 71 -33Z" />
<glyph unicode="-" glyph-name="hyphen" horiz-adv-x="427" d="M355 261H72V281H355V261Z" />
<glyph unicode="." glyph-name="period" horiz-adv-x="164" d="M92 0H72V64H92V0Z" />
<glyph unicode="/" glyph-name="slash" horiz-adv-x="539" d="M485 710H511L55 0H30L485 710Z" />
<glyph unicode="0" glyph-name="zero" horiz-adv-x="616" d="M553 425T553 293T484 76T308 -10T132 75T63 293T132 511T308 597T483 511ZM533 167T533 293T471 498T308 577T146 498T83 293T145 89T308 10T470 88Z" />
<glyph unicode="1" glyph-name="one" horiz-adv-x="381" d="M232 20H359V0H70V20H212V538Q194 512 140 482T47 452V476Q79 476 120 499T185 544T212 571H232V20Z" />
<glyph unicode="2" glyph-name="two" horiz-adv-x="507" d="M449 0H59Q59 20 61 40T73 94T100 156T150 214T230 263Q236 266 258 275T291 288T321 302T352 320T377 341T399 366T412 396T418 433Q418 484 376 522T256 561Q221 561 190 550T136 522T103 494T85 474L69
486Q69 490 90 511T157 556T256 581Q341 581 389 537T438 433Q438 408 432 387T411 348T384 319T348 294T311 275T272 258T237 244Q189 223 155 190T105 122T84 63T78 20H449V0Z" />
<glyph unicode="3" glyph-name="three" horiz-adv-x="519" d="M309 236Q380 226 423 174T467 48Q467 -39 408 -93T255 -147Q181 -147 125 -113T47 -19L66 -12Q83 -64 135 -95T257 -127Q343 -127 395 -79T447 51T395 179T252 227H230V247H253Q340 247 387 284T435
390Q435 464 384 510T255 556Q192 556 144 525T76 443L58 450Q78 507 132 541T255 576Q341 576 398 525T455 395Q455 331 416 288T309 236Z" />
<glyph unicode="4" glyph-name="four" horiz-adv-x="526" d="M406 -127H386V72H21V89L392 571H406V92H494V72H406V-127ZM386 534L49 92H386V534Z" />
<glyph unicode="5" glyph-name="five" horiz-adv-x="548" d="M274 306Q370 306 437 243T504 82Q504 -20 435 -84T269 -149Q195 -149 135 -109T45 -3H67Q94 -60 148 -94T269 -129Q360 -129 422 -70T484 82Q484 170 424 228T274 286Q217 286 166 261T82 188H58L136
571H473V551H153L88 226Q162 306 274 306Z" />
<glyph unicode="6" glyph-name="six" horiz-adv-x="605" d="M557 333T557 232T486 61T311 -10Q203 -10 132 65T61 266Q61 491 129 603T313 715Q386 715 441 675T519 568L500 561Q481 621 430 658T314 695Q209 695 146 593T83 308Q106 382 170 428T315 475Q415
475 486 404ZM221 10T313 10T471 75T537 231T471 388T312 455T154 389T87 232T154 76Z" />
<glyph unicode="7" glyph-name="seven" horiz-adv-x="532" d="M125 -127L479 563H52V583H512L148 -127H125Z" />
<glyph unicode="8" glyph-name="eight" horiz-adv-x="590" d="M532 188Q532 101 461 47T291 -7Q187 -7 122 51T57 190Q57 260 106 311T221 381Q161 402 122 443T83 541Q83 618 147 664T295 710T442 664T506 541Q506 485 467 444T367 381Q440 360 486 309T532 188ZM512
191Q512 271 444 321T293 371Q210 371 144 320T77 189Q77 109 145 60T296 10Q379 10 445 61T512 191ZM103 539Q103 472 162 432T294 391T426 432T486 541Q486 609 429 649T293 690Q216 690 160 649T103 539Z" />
<glyph unicode="9" glyph-name="nine" horiz-adv-x="589" d="M42 228T42 329T113 500T288 571Q396 571 467 496T538 295Q538 70 470 -42T286 -154Q213 -154 158 -114T80 -7L99 0Q118 -60 169 -97T285 -134Q390 -134 453 -32T516 253Q493 179 429 133T284 86Q184
86 113 157ZM378 551T286 551T128 486T62 330T128 173T287 106T445 172T512 329T445 485Z" />
<glyph unicode=":" glyph-name="colon" horiz-adv-x="164" d="M92 453H72V517H92V453ZM92 0H72V64H92V0Z" />
<glyph unicode=";" glyph-name="semicolon" horiz-adv-x="184" d="M105 453H85V517H105V453ZM72 -33V-13Q85 -13 85 0V64H105V2Q105 -33 72 -33Z" />
<glyph unicode="&lt;" glyph-name="less" horiz-adv-x="504" d="M35 250V268L452 517V495L64 259L452 22V0L35 250Z" />
<glyph unicode="=" glyph-name="equal" horiz-adv-x="445" d="M369 231H76V251H369V231ZM369 301H76V321H369V301Z" />
<glyph unicode="&gt;" glyph-name="greater" horiz-adv-x="504" d="M469 268V250L52 0V22L440 259L52 495V517L469 268Z" />
<glyph unicode="?" glyph-name="question" horiz-adv-x="471" d="M199 179H179Q179 267 200 305T265 366Q273 370 297 381T331 399T360 419T388 448T404 484T411 535Q411 615 363 657T245 699Q184 699 132 667T54 582L36 590Q63 650 121 684T244 719Q322 719 376
670T431 532Q431 503 424 479T407 439T378 408T346 386T308 366T273 347Q235 327 217 294T199 179ZM199 0H179V84H199V0Z" />
<glyph unicode="@" glyph-name="at" horiz-adv-x="819" d="M418 603Q566 603 670 492T774 222Q774 199 772 175T762 114T739 51T698 4T634 -16Q611 -16 597 -9T575 13T564 44T559 84Q532 53 487 33T392 12Q326 12 286 47T246 140Q246 205 299 235T427 265Q497
265 563 242Q563 332 534 380T431 429Q356 429 287 381L275 397Q352 449 432 449Q470 449 498 437T541 407T566 361T579 307T582 248V95Q582 47 592 26T635 4Q668 4 692 26T729 82T748 152T754 223Q754 372 656 477T418 583Q281 583 178 482T75 230Q75 82 175 -22T417
-126Q499 -126 569 -88L579 -106Q502 -146 417 -146Q268 -146 162 -37T55 230Q55 389 164 496T418 603ZM489 55Q520 70 537 91T558 131T562 174V221L514 233Q467 245 422 245Q356 245 311 221T266 140Q266 90 303 61T392 32Q441 32 489 55Z" />
<glyph unicode="A" glyph-name="A" horiz-adv-x="683" d="M45 0H23L333 710H351L660 0H638L527 254H156L45 0ZM518 274L342 681L164 274H518Z" />
<glyph unicode="B" glyph-name="B" horiz-adv-x="660" d="M607 184Q607 110 555 55T430 0H101V710H415Q487 710 532 655T577 529Q577 475 549 430T475 364Q535 346 571 296T607 184ZM587 184Q587 249 544 298T437 348H121V20H430Q494 20 540 70T587 184ZM415 690H121V368H409Q472
368 514 417T557 529Q557 595 517 642T415 690Z" />
<glyph unicode="C" glyph-name="C" horiz-adv-x="702" d="M52 360Q52 425 75 487T139 600T245 682T387 714Q478 714 545 672T646 559L627 553Q588 626 523 660T383 694Q288 694 216 644T108 517T72 357Q72 219 164 117T386 14Q462 14 533 52T644 164L663 159Q628
82 548 38T382 -6Q289 -6 212 48T94 185T52 360Z" />
<glyph unicode="D" glyph-name="D" horiz-adv-x="718" d="M329 0H101V710H329Q490 710 576 611T662 356Q662 194 572 97T329 0ZM642 207T642 356T559 597T329 690H121V20H329Q479 20 560 113Z" />
<glyph unicode="E" glyph-name="E" horiz-adv-x="619" d="M121 20H567V0H101V710H558V690H121V373H504V353H121V20Z" />
<glyph unicode="F" glyph-name="F" horiz-adv-x="596" d="M121 0H101V710H558V690H121V374H494V354H121V0Z" />
<glyph unicode="G" glyph-name="G" horiz-adv-x="730" d="M644 0V121Q533 -5 388 -5Q293 -5 215 48T95 184T53 355Q53 498 145 606T376 715Q570 715 647 560L628 554Q552 695 376 695Q286 695 216 645T109 517T73 355Q73 220 165 118T388 15Q529 15 644 149V318H477V338H664V0H644Z"
/>
<glyph unicode="H" glyph-name="H" horiz-adv-x="735" d="M614 710H634V0H614V353H121V0H101V710H121V373H614V710Z" />
<glyph unicode="I" glyph-name="I" horiz-adv-x="222" d="M121 0H101V709H121V0Z" />
<glyph unicode="J" glyph-name="J" horiz-adv-x="480" d="M23 33L34 49Q92 9 177 9Q227 9 262 25T317 67T349 138T363 231T367 349V709H387V349Q387 277 383 228T367 130T332 53T271 7T177 -11Q87 -11 23 33Z" />
<glyph unicode="K" glyph-name="K" horiz-adv-x="623" d="M121 0H101V709H121V249L573 710H602L299 400L616 0H590L284 386L121 221V0Z" />
<glyph unicode="L" glyph-name="L" horiz-adv-x="591" d="M567 0H101V710H121V20H567V0Z" />
<glyph unicode="M" glyph-name="M" horiz-adv-x="888" d="M787 0H767V666L452 140H436L121 666V0H101V710H117L444 164L771 710H787V0Z" />
<glyph unicode="N" glyph-name="N" horiz-adv-x="780" d="M656 0L121 671V0H101V710H116L659 29V709H679V0H656Z" />
<glyph unicode="O" glyph-name="O" horiz-adv-x="767" d="M384 -5Q242 -4 148 104T53 355Q53 499 149 607T384 715Q525 715 619 605T714 355Q714 210 618 103T384 -5ZM73 355Q73 219 162 117T384 15Q517 15 605 119T694 355Q694 443 654 521T542 647T384 695Q295
695 223 645T112 518T73 355Z" />
<glyph unicode="P" glyph-name="P" horiz-adv-x="622" d="M121 0H101V710H390Q474 710 532 644T590 495Q590 409 536 344T397 279H121V0ZM121 690V299H397Q474 299 522 358T570 495T517 631T390 690H121Z" />
<glyph unicode="Q" glyph-name="Q" horiz-adv-x="767" d="M652 0L591 76Q500 -5 384 -5Q242 -4 148 104T53 355Q53 499 149 607T384 715Q525 715 619 605T714 355Q714 279 685 210T605 89L677 0H652ZM384 15Q494 15 579 92L504 186H529L593 105Q641 154 667 220T694
355Q694 443 654 521T542 647T384 695Q295 695 223 645T112 518T73 355Q73 219 162 117T384 15Z" />
<glyph unicode="R" glyph-name="R" horiz-adv-x="649" d="M121 0H101V710H390Q474 710 532 644T590 495Q590 411 539 348T409 279L589 0H565L385 279H121V0ZM121 690V299H397Q474 299 522 358T570 495Q570 572 517 631T390 690H121Z" />
<glyph unicode="S" glyph-name="S" horiz-adv-x="610" d="M526 630L513 616Q472 661 427 678T317 696Q200 696 144 651T87 526Q87 453 135 422T311 365Q378 351 419 339T498 305T552 252T569 174Q569 88 503 42T319 -5Q154 -5 43 105L58 118Q161 12 320 12Q428
12 488 52T549 171Q549 247 496 284T312 346Q180 371 124 406T67 524Q67 615 133 665T315 715Q448 715 526 630Z" />
<glyph unicode="T" glyph-name="T" horiz-adv-x="610" d="M587 710V690H315V0H295V690H23V710H587Z" />
<glyph unicode="U" glyph-name="U" horiz-adv-x="761" d="M380 15Q457 15 512 44T596 123T638 231T651 355V710H671V355Q671 296 662 245T632 148T578 68T495 15T381 -5Q316 -5 265 15T181 70T128 151T99 249T90 355V710H110V355Q110 286 123 229T165 122T249 44T380 15Z" />
<glyph unicode="V" glyph-name="V" horiz-adv-x="680" d="M20 710H41L340 25L638 710H660L351 0H329L20 710Z" />
<glyph unicode="W" glyph-name="W" horiz-adv-x="1040" d="M509 414L382 704H404L519 438L635 704H657L530 414L700 25L998 710H1020L711 0H689L520 389L351 0H329L20 710H42L340 25L509 414Z" />
<glyph unicode="X" glyph-name="X" horiz-adv-x="621" d="M11 710H37L311 366L585 710H610L323 350L602 0H577L311 334L45 0H19L298 350L11 710Z" />
<glyph unicode="Y" glyph-name="Y" horiz-adv-x="627" d="M16 710H39L313 298L588 710H611L323 275V0H303V277L16 710Z" />
<glyph unicode="Z" glyph-name="Z" horiz-adv-x="625" d="M29 0V20L571 690H34V710H596V690L54 20H592V0H29Z" />
<glyph unicode="[" glyph-name="bracketleft" horiz-adv-x="210" d="M163 -40H93V740H163V720H113V-20H163V-40Z" />
<glyph unicode="\" glyph-name="backslash" horiz-adv-x="519" d="M28 710H54L489 0H464L28 710Z" />
<glyph unicode="]" glyph-name="bracketright" horiz-adv-x="210" d="M117 -40H47V-20H97V720H47V740H117V-40Z" />
<glyph unicode="^" glyph-name="asciicircum" horiz-adv-x="509" d="M69 303H48L246 710H264L461 303H438L255 681L69 303Z" />
<glyph unicode="_" glyph-name="underscore" horiz-adv-x="439" d="M416 -20H23V0H416V-20Z" />
<glyph unicode="`" glyph-name="grave" horiz-adv-x="198" d="M132 645L50 730H83L148 657L132 645Z" />
<glyph unicode="a" glyph-name="a" horiz-adv-x="525" d="M206 -10Q135 -10 87 36T38 149Q38 214 98 255T252 297Q347 297 426 268V327Q426 408 379 457T256 507Q179 507 88 443L76 459Q176 527 256 527Q343 527 394 473T446 327V40Q446 20 462 20V0Q451 0 448
2Q426 10 426 40V88Q390 42 332 16T206 -10ZM206 10Q273 10 328 35T411 102Q426 123 426 143V246Q346 277 252 277Q165 277 112 242T58 149T101 51T206 10Z" />
<glyph unicode="b" glyph-name="b" horiz-adv-x="603" d="M306 -10Q246 -10 191 23T103 108V0H83V730H103V398Q194 527 315 527Q423 527 489 445T556 258Q556 150 483 70T306 -10ZM306 10Q403 10 469 86T536 258Q536 357 473 432T315 507Q245 507 190 464T103
356V167Q107 106 174 58T306 10Z" />
<glyph unicode="c" glyph-name="c" horiz-adv-x="540" d="M47 150T47 262T119 450T297 527Q362 527 414 497T492 411L472 404Q447 452 399 479T294 507Q199 507 133 436T67 262T134 85T295 10Q356 10 411 43T479 119L499 113Q482 61 424 26T298 -10Q195 -10 121 70Z" />
<glyph unicode="d" glyph-name="d" horiz-adv-x="604" d="M297 -10Q192 -10 120 72T47 258Q47 367 116 447T288 527Q355 527 410 491T500 398V730H520V40Q520 20 536 20V0Q527 0 523 2Q500 11 500 40V108Q467 56 411 23T297 -10ZM297 10Q362 10 429 59T500 169V356Q478
418 415 462T288 507Q191 507 129 432T67 258Q67 159 134 85T297 10Z" />
<glyph unicode="e" glyph-name="e" horiz-adv-x="578" d="M297 -10Q194 -10 121 70T47 263Q47 373 118 450T292 527Q395 527 468 449T542 259V248H67Q75 147 141 79T298 10Q358 10 410 40T484 119L503 114Q482 61 423 26T297 -10ZM67 268H521Q514 372 450 439T293
507T137 439T67 268Z" />
<glyph unicode="f" glyph-name="f" horiz-adv-x="320" d="M127 0H107V438H32V458H107V540Q107 634 143 687T244 740Q308 740 339 706L323 694Q296 721 245 721Q188 721 158 675T127 540V458H282V438H127V0Z" />
<glyph unicode="g" glyph-name="g" horiz-adv-x="603" d="M297 -10Q192 -10 120 72T47 258Q47 366 115 446T288 527Q409 527 500 398V519H520V-22Q520 -119 454 -171T291 -223Q131 -223 66 -99L85 -93Q115 -149 169 -176T291 -203Q381 -203 440 -156T500 -22V108Q467
56 411 23T297 -10ZM297 10Q369 10 432 61T500 169V356Q475 421 415 464T288 507Q189 507 128 431T67 258Q67 159 134 85T297 10Z" />
<glyph unicode="h" glyph-name="h" horiz-adv-x="562" d="M486 289V0H466V289Q466 507 322 507Q249 507 186 456T103 328V0H83V730H103V385Q135 449 194 488T321 527Q402 527 444 467T486 289Z" />
<glyph unicode="i" glyph-name="i" horiz-adv-x="186" d="M103 0H83V519H103V0ZM103 653H83V730H103V653Z" />
<glyph unicode="j" glyph-name="j" horiz-adv-x="186" d="M-30 -170Q-96 -170 -130 -136L-114 -124Q-84 -150 -31 -150Q12 -150 47 -117T83 -36V519H103V-36Q103 -92 61 -131T-30 -170ZM103 653H83V730H103V653Z" />
<glyph unicode="k" glyph-name="k" horiz-adv-x="506" d="M489 0H465L244 297L103 169V0H83V730H103V196L457 517H484L259 311L489 0Z" />
<glyph unicode="l" glyph-name="l" horiz-adv-x="225" d="M88 77V730H108V77Q108 48 126 31T174 14Q198 14 229 23L236 7Q200 -5 167 -5Q132 -5 110 17T88 77Z" />
<glyph unicode="m" glyph-name="m" horiz-adv-x="906" d="M829 289V0H809V289Q809 400 775 453T670 507Q597 507 542 457T466 327V0H446V289Q446 402 413 454T308 507Q236 507 181 458T103 328V0H83V519H103V385Q137 452 189 489T304 527Q369 527 411 486T462
376Q540 527 670 527Q751 527 790 469T829 289Z" />
<glyph unicode="n" glyph-name="n" horiz-adv-x="563" d="M486 289V0H466V289Q466 403 435 455T333 507Q258 507 192 456T103 328V0H83V519H103V385Q135 448 198 487T332 527Q411 527 448 469T486 289Z" />
<glyph unicode="o" glyph-name="o" horiz-adv-x="588" d="M396 -10T294 -10T120 69T47 258T120 447T294 527T468 447T541 258T469 70ZM67 256Q67 155 133 83T293 10T453 84T521 259T454 433T294 507T135 433T67 256Z" />
<glyph unicode="p" glyph-name="p" horiz-adv-x="603" d="M315 -10Q250 -10 195 26T103 119V-213H83V519H103V409Q136 461 192 494T306 527Q412 527 484 445T556 258Q556 148 489 69T315 -10ZM315 10Q412 10 474 85T536 258Q536 357 469 432T306 507Q242 507 175
458T103 348V161Q132 96 190 53T315 10Z" />
<glyph unicode="q" glyph-name="q" horiz-adv-x="603" d="M288 -10Q183 -10 115 71T47 258Q47 365 120 446T297 527Q357 527 412 494T500 409V519H520V-173Q520 -193 536 -193V-213Q526 -213 522 -211Q500 -202 500 -173V119Q411 -10 288 -10ZM288 10Q357 10 412
53T500 161V348Q493 409 429 458T297 507Q199 507 133 431T67 258Q67 158 130 84T288 10Z" />
<glyph unicode="r" glyph-name="r" horiz-adv-x="325" d="M305 519V499Q231 496 178 451T103 328V0H83V519H103V385Q130 440 175 475T272 517Q298 519 305 519Z" />
<glyph unicode="s" glyph-name="s" horiz-adv-x="471" d="M235 -10Q114 -10 37 74L52 87Q130 10 235 10Q313 10 360 44T408 136Q408 188 368 211T227 257Q186 267 166 272T122 287T87 308T69 337T61 380Q61 453 113 490T244 527Q305 527 350 506T413 452L395 444Q377
474 334 490T240 507Q171 507 126 476T81 383Q81 335 111 316T228 277Q274 266 297 260T351 242T394 218T418 185T428 139Q428 71 375 31T235 -10Z" />
<glyph unicode="t" glyph-name="t" horiz-adv-x="295" d="M277 40L288 24Q286 22 276 16T242 3T193 -5Q156 -5 130 17T103 75V499H28V519H103V700H123V519H248V499H123V75Q123 47 144 31T193 15Q214 15 234 21T265 32T277 40Z" />
<glyph unicode="u" glyph-name="u" horiz-adv-x="574" d="M244 -10Q77 -10 77 228V519H97V228Q97 10 244 10Q319 10 383 60T470 189V519H490V40Q490 20 506 20V0Q495 0 492 2Q470 10 470 40V132Q436 67 375 29T244 -10Z" />
<glyph unicode="v" glyph-name="v" horiz-adv-x="520" d="M269 0H251L25 519H47L260 29L473 519H495L269 0Z" />
<glyph unicode="w" glyph-name="w" horiz-adv-x="794" d="M533 29L747 519H769L542 0H524L397 291L270 0H252L25 519H47L261 29L386 316L299 518H320L397 342L474 518H495L408 316L533 29Z" />
<glyph unicode="x" glyph-name="x" horiz-adv-x="480" d="M19 519H45L232 285L240 273L248 285L435 519H461L253 258L459 0H433L248 232L240 244L232 232L47 0H21L227 258L19 519Z" />
<glyph unicode="y" glyph-name="y" horiz-adv-x="541" d="M129 -223V-203Q168 -203 176 -193Q182 -186 263 0L22 519H44L273 25L490 519H512L203 -186Q191 -214 170 -218Q150 -223 129 -223Z" />
<glyph unicode="z" glyph-name="z" horiz-adv-x="483" d="M31 0V20L427 499H36V519H452V499L57 20H448V0H31Z" />
<glyph unicode="{" glyph-name="braceleft" horiz-adv-x="214" d="M168 720H113V416Q113 379 92 360Q113 342 113 304V-11H168V-31H116Q93 -31 93 -1V304Q93 347 63 351V371Q93 371 93 416V710Q93 727 101 733T116 740H168V720Z" />
<glyph unicode="|" glyph-name="bar" horiz-adv-x="202" d="M111 -130H91V775H111V-130Z" />
<glyph unicode="}" glyph-name="braceright" horiz-adv-x="214" d="M101 720H46V740H98Q102 740 106 738T116 729T121 710V416Q121 371 151 371V351Q121 347 121 304V-1Q121 -31 98 -31H46V-11H101V304Q101 342 122 360Q101 379 101 416V720Z" />
<glyph unicode="~" glyph-name="asciitilde" horiz-adv-x="468" d="M73 251Q73 256 80 274T109 312T157 332T232 302T306 271Q328 271 345 284T369 309T376 325L396 324Q395 321 393 316T384 299T367 277T342 259T306 251Q272 251 224 281T157 312T123 297T100
268T93 251H73Z" />
</font>
</defs>
</svg>
