<?xml version="1.0" standalone="no"?> <!DOCTYPE svg PUBLIC "-//W3C//DTD SVG 1.0//EN" "http://www.w3.org/TR/2001/REC-SVG-20010904/DTD/svg10.dtd" > <svg xmlns="http://www.w3.org/2000/svg" width="100%" height="100%">
<defs >
<font id="ralewayheavy" horiz-adv-x="498" ><font-face
    font-family="Raleway"
    units-per-em="1000"
    panose-1="2 11 0 3 3 1 1 6 0 3"
    ascent="940"
    descent="-234"
    alphabetic="0" />
<missing-glyph horiz-adv-x="0" />
<glyph unicode=" " glyph-name="space" horiz-adv-x="225" />
<glyph unicode="!" glyph-name="exclam" horiz-adv-x="328" d="M259 300H69V717H259V300ZM259 0H69V184H259V0Z" />
<glyph unicode="&quot;" glyph-name="quotedbl" horiz-adv-x="476" d="M213 496H53V730H213V496ZM423 496H263V730H423V496Z" />
<glyph unicode="#" glyph-name="numbersign" horiz-adv-x="757" d="M721 527V397H562L542 310H670V170H508L467 0H316L358 170H298L257 0H106L148 170H36V310H182L202 397H87V527H234L279 710H430L384 527H444L489 710H640L594 527H721ZM332 310H392L412 397H352L332
310Z" />
<glyph unicode="$" glyph-name="dollar" horiz-adv-x="649" d="M594 639L510 478Q432 526 357 539V449Q363 447 376 443T397 437Q451 420 486 404T552 362T597 302T611 217Q611 107 543 53T371 -8V-129H291V-6Q146 7 32 74L116 245Q209 184 305 170V258Q274 266
243 277Q147 309 105 354T63 476Q63 579 127 641T291 714V815H371V713Q465 702 594 639ZM401 198Q401 223 357 241V167Q401 171 401 198ZM265 508Q265 483 305 466V542Q265 537 265 508Z" />
<glyph unicode="%" glyph-name="percent" horiz-adv-x="851" d="M286 404T211 404T85 450T33 562T84 674T211 720T337 674T389 562T338 450ZM191 494T211 494T245 514T259 562T245 610T211 630T177 610T163 562T177 514ZM715 -10T640 -10T514 36T462 148T513 260T640
306T766 260T818 148T767 36ZM620 80T640 80T674 100T688 148T674 196T640 216T606 196T592 148T606 100ZM200 -10L117 65L400 384L651 721L734 646L463 337L200 -10Z" />
<glyph unicode="&amp;" glyph-name="ampersand" horiz-adv-x="753" d="M755 0H506L468 40Q384 -10 285 -10Q168 -10 102 58T35 216Q35 318 135 399Q103 438 90 469T77 536Q77 621 135 670T285 719Q371 719 432 676T494 548Q494 452 402 372L484 285Q507 346 507
416H660Q659 271 596 167L755 0ZM305 138Q335 138 364 151L251 272Q217 244 217 216Q217 189 239 164T305 138ZM249 544Q249 532 255 523T282 495Q320 520 320 546Q320 562 311 571T285 581Q268 581 259 571T249 544Z" />
<glyph unicode="&apos;" glyph-name="quotesingle" horiz-adv-x="266" d="M213 496H53V730H213V496Z" />
<glyph unicode="(" glyph-name="parenleft" horiz-adv-x="342" d="M25 348Q25 441 65 542T181 772L326 714Q286 650 244 545T202 345Q202 270 231 192T321 1L183 -66Q25 171 25 348Z" />
<glyph unicode=")" glyph-name="parenright" horiz-adv-x="342" d="M317 348Q317 171 159 -66L21 1Q81 113 110 191T140 345Q140 439 98 544T16 714L161 772Q237 643 277 542T317 348Z" />
<glyph unicode="*" glyph-name="asterisk" horiz-adv-x="364" d="M134 454L65 499L114 577L42 598L66 675L141 639L134 721H230L223 639L298 675L322 598L250 577L299 499L230 454L182 537L134 454Z" />
<glyph unicode="+" glyph-name="plus" horiz-adv-x="428" d="M299 430H384V280H299V185H129V280H44V430H129V525H299V430Z" />
<glyph unicode="," glyph-name="comma" horiz-adv-x="263" d="M13 -153V-20Q20 -20 28 -18T45 -6T56 20V184H210V-18Q210 -56 191 -84T141 -126T79 -146T13 -153Z" />
<glyph unicode="-" glyph-name="hyphen" horiz-adv-x="413" d="M363 191H50V361H363V191Z" />
<glyph unicode="." glyph-name="period" horiz-adv-x="254" d="M204 0H50V184H204V0Z" />
<glyph unicode="/" glyph-name="slash" horiz-adv-x="776" d="M542 710H752L236 0H27L542 710Z" />
<glyph unicode="0" glyph-name="zero" horiz-adv-x="614" d="M572 293Q572 162 497 76T307 -10T118 76T42 293Q42 425 117 511T307 597T496 511T572 293ZM380 236T380 293T360 386T307 423Q273 423 253 387T232 293T252 200T307 164Q339 164 359 200Z" />
<glyph unicode="1" glyph-name="one" horiz-adv-x="547" d="M396 170H523V0H60V170H202V369Q184 346 132 324T41 302V476Q70 476 130 511T202 571H396V170Z" />
<glyph unicode="2" glyph-name="two" horiz-adv-x="600" d="M559 0H32Q32 99 65 156T183 258Q293 317 317 333T341 368Q341 417 281 417Q219 417 157 345L37 486Q76 529 152 555T314 581Q427 581 487 534T548 401Q548 344 522 307T446 237Q432 228 396 206T339
170H559V0Z" />
<glyph unicode="3" glyph-name="three" horiz-adv-x="579" d="M408 237Q470 226 509 176T548 57Q548 -37 472 -92T263 -147Q113 -147 20 -67L117 71Q173 27 253 27Q304 27 327 42T351 92Q351 129 321 146T223 163H192V295H227Q275 295 304 314T333 364Q333 388
316 401T268 415Q196 415 149 345L29 486Q64 526 136 551T290 576Q401 576 469 528T537 400Q537 341 500 294T408 237Z" />
<glyph unicode="4" glyph-name="four" horiz-adv-x="584" d="M467 -127H277V-3H20V167L337 571H467V167H555V-3H467V-127ZM299 287L207 167H299V287Z" />
<glyph unicode="5" glyph-name="five" horiz-adv-x="558" d="M296 326Q400 326 466 262T532 95Q532 -13 456 -81T257 -149Q179 -149 117 -120T20 -37L124 83Q185 17 258 17Q295 17 316 37T337 91Q337 124 318 144T268 164Q223 164 203 129H40L124 571H480V398H261L250
321Q264 326 296 326Z" />
<glyph unicode="6" glyph-name="six" horiz-adv-x="608" d="M572 240Q572 134 496 62T306 -10Q179 -10 109 82T39 340Q39 516 115 616T325 716Q455 716 551 620L446 498Q392 552 322 552Q273 552 245 522T214 439Q252 473 322 473Q429 473 500 407T572 240ZM272
149T306 149T365 176T391 240Q391 275 366 299T306 324T246 300T221 240Q221 203 246 176Z" />
<glyph unicode="7" glyph-name="seven" horiz-adv-x="595" d="M38 -126L301 411H30V584H600L253 -126H38Z" />
<glyph unicode="8" glyph-name="eight" horiz-adv-x="612" d="M574 221Q574 119 497 55T306 -10Q196 -10 117 56T38 227Q38 315 124 379Q96 396 77 430T58 499Q58 564 97 613T192 686T306 710T419 687T515 615T555 501Q555 466 536 431T488 379Q574 314 574 221ZM381
232Q381 264 360 282T306 301T252 282T231 232Q231 203 252 183T306 163Q339 163 360 183T381 232ZM251 495Q251 470 267 456T306 442T345 456T362 495Q362 515 346 529T306 543T267 529T251 495Z" />
<glyph unicode="9" glyph-name="nine" horiz-adv-x="590" d="M27 321Q27 426 103 498T293 571Q420 571 490 479T560 221Q560 45 484 -55T274 -155Q144 -155 48 -59L153 63Q207 9 277 9Q326 9 354 39T385 122Q347 88 277 88Q170 88 99 154T27 321ZM327 412T293
412T234 385T208 321Q208 286 233 262T293 237T353 261T378 321Q378 358 353 385Z" />
<glyph unicode=":" glyph-name="colon" horiz-adv-x="282" d="M218 335H64V519H218V335ZM218 0H64V184H218V0Z" />
<glyph unicode=";" glyph-name="semicolon" horiz-adv-x="282" d="M218 335H64V519H218V335ZM21 -153V-20Q28 -20 36 -18T53 -6T64 20V184H218V-18Q218 -56 199 -84T149 -126T87 -146T21 -153Z" />
<glyph unicode="&lt;" glyph-name="less" horiz-adv-x="512" d="M31 210V298L455 556V354L307 259L455 172V-40L31 210Z" />
<glyph unicode="=" glyph-name="equal" horiz-adv-x="433" d="M378 101H55V221H378V101ZM378 331H55V451H378V331Z" />
<glyph unicode="&gt;" glyph-name="greater" horiz-adv-x="512" d="M481 298V210L57 -40V172L205 259L57 354V556L481 298Z" />
<glyph unicode="?" glyph-name="question" horiz-adv-x="499" d="M253 259H98Q98 311 112 345T177 406Q179 407 196 415T223 429T249 446T275 466T292 489T300 516Q300 538 283 552T240 566Q223 566 209 558T188 543T170 521T158 504L37 590Q62 650 118 684T247
719Q287 719 324 708T394 674T445 610T465 515Q465 412 385 358Q366 345 328 327T272 294T253 259ZM256 0H101V164H256V0Z" />
<glyph unicode="@" glyph-name="at" horiz-adv-x="845" d="M426 603Q502 603 569 580T690 512T776 392T808 221Q808 197 806 175T795 115T770 51T722 4T646 -16Q596 -16 572 6T542 57Q467 -13 367 -13Q288 -13 247 28T206 136Q206 218 263 256T401 295Q460 295
506 272Q506 316 483 339T400 363Q317 363 273 322L241 419Q314 468 419 468Q459 468 490 461T542 442T577 411T599 376T611 335T615 295T616 255V188Q616 160 617 143T622 105T637 74T665 64Q687 64 702 82T723 129T732 180T735 225Q735 361 650 447T420 533Q278
533 195 449T112 229Q112 98 190 11T404 -76Q421 -76 437 -74T463 -71T491 -64T513 -57T538 -47T562 -38L582 -106Q498 -146 401 -146Q247 -146 143 -42T38 231Q38 349 93 435T234 562T426 603ZM417 86T461 107T505 166V189Q458 208 406 208Q319 208 319 144Q319
86 378 86Q417 86 461 107Z" />
<glyph unicode="A" glyph-name="A" horiz-adv-x="671" d="M199 0H-8L257 710H415L679 0H473L430 139H241L199 0ZM399 269L336 507L270 269H399Z" />
<glyph unicode="B" glyph-name="B" horiz-adv-x="689" d="M665 182Q665 91 594 46T410 0H61V710H473Q545 710 590 655T635 528Q635 476 609 431T533 364Q665 325 665 182ZM467 222Q467 248 453 265T417 283H256V164H410Q435 164 451 179T467 222ZM395 544H256V435H389Q442
435 442 490Q442 518 429 531T395 544Z" />
<glyph unicode="C" glyph-name="C" horiz-adv-x="655" d="M22 361Q22 427 45 489T112 602T221 683T365 714Q458 714 530 672T636 559L487 453Q471 500 436 520T361 541Q293 541 257 485T220 355Q220 277 259 222T363 167Q401 167 435 188T484 254L643 159Q614
84 532 39T359 -6Q216 -6 119 106T22 361Z" />
<glyph unicode="D" glyph-name="D" horiz-adv-x="717" d="M334 0H61V710H334Q504 710 598 610T692 356Q692 195 594 98T334 0ZM494 356Q494 439 451 489T334 540H256V170H334Q409 170 451 222T494 356Z" />
<glyph unicode="E" glyph-name="E" horiz-adv-x="597" d="M256 170H567V0H61V710H558V540H256V440H514V282H256V170Z" />
<glyph unicode="F" glyph-name="F" horiz-adv-x="559" d="M256 0H61V710H548V540H256V422H494V264H256V0Z" />
<glyph unicode="G" glyph-name="G" horiz-adv-x="699" d="M503 0V58Q436 -5 348 -5Q217 -5 120 104T23 361Q23 510 122 612T367 715Q457 715 529 674T637 560L492 449Q474 491 438 516T360 542Q299 542 260 489T221 354Q221 271 261 220T365 168Q438 168 497 238H372V378H664V0H503Z"
/>
<glyph unicode="H" glyph-name="H" horiz-adv-x="750" d="M494 710H689V0H494V278H256V0H61V710H256V448H494V710Z" />
<glyph unicode="I" glyph-name="I" horiz-adv-x="317" d="M256 0H61V710H256V0Z" />
<glyph unicode="J" glyph-name="J" horiz-adv-x="502" d="M5 33L46 192Q57 184 89 173T159 162Q218 162 236 201T254 349V710H449V349Q449 298 447 261T437 184T416 116T382 63T330 23T256 -2T159 -11Q69 -11 5 33Z" />
<glyph unicode="K" glyph-name="K" horiz-adv-x="689" d="M256 0H61V710H256V420L492 710H692L434 392L710 0H506L319 283L256 211V0Z" />
<glyph unicode="L" glyph-name="L" horiz-adv-x="588" d="M578 0H61V710H256V170H578V0Z" />
<glyph unicode="M" glyph-name="M" horiz-adv-x="854" d="M793 0H598V374L479 111H375L256 374V0H61V710H274L427 376L581 710H793V0Z" />
<glyph unicode="N" glyph-name="N" horiz-adv-x="754" d="M538 0L256 349V0H61V710H213L498 349V710H693V0H538Z" />
<glyph unicode="O" glyph-name="O" horiz-adv-x="727" d="M362 -6Q215 -6 119 103T23 356Q23 500 121 607T366 714Q513 714 608 604T704 352Q704 208 606 101T362 -6ZM221 431T221 354T258 222T364 167T469 223T506 356T469 487T363 541Q294 541 258 486Z" />
<glyph unicode="P" glyph-name="P" horiz-adv-x="620" d="M256 0H61V710H367Q468 710 537 635T606 464Q606 366 540 292T372 218H256V0ZM256 540V388H359Q380 388 394 406T408 464Q408 504 392 522T354 540H256Z" />
<glyph unicode="Q" glyph-name="Q" horiz-adv-x="730" d="M560 0L525 38Q450 -5 362 -5Q215 -5 119 104T23 356Q23 501 121 608T366 715Q464 715 543 662T663 526T704 352Q704 225 626 125L742 0H560ZM364 168Q381 168 401 173L284 300H466L493 271Q506 309 506
356Q506 433 469 487T363 542Q294 542 258 487T221 354T258 223T364 168Z" />
<glyph unicode="R" glyph-name="R" horiz-adv-x="686" d="M256 0H61V710H387Q488 710 557 635T626 464Q626 402 599 349T524 261L684 0H464L329 218H256V0ZM256 540V388H379Q398 388 413 409T428 464T411 519T374 540H256Z" />
<glyph unicode="S" glyph-name="S" horiz-adv-x="617" d="M575 639L491 478Q479 485 460 496T391 525T303 543Q246 543 246 508Q246 500 248 494T258 483T271 473T292 464T315 456T345 447T378 437Q432 420 467 404T533 362T578 302T592 217Q592 167 577 128T535
64T474 22T401 -2T322 -9Q245 -9 161 13T13 74L97 245Q110 236 133 223T216 189T325 167Q382 167 382 198Q382 210 375 219T350 235T317 248T272 261T224 277Q128 309 86 354T44 476Q44 589 121 652T309 716Q421 716 575 639Z" />
<glyph unicode="T" glyph-name="T" horiz-adv-x="624" d="M614 710V540H410V0H215V540H10V710H614Z" />
<glyph unicode="U" glyph-name="U" horiz-adv-x="741" d="M370 167Q434 167 465 218T496 345V710H691V345Q691 188 610 91T370 -6Q261 -6 187 43T82 170T50 345V710H245V345Q245 268 276 218T370 167Z" />
<glyph unicode="V" glyph-name="V" horiz-adv-x="670" d="M-9 710H197L336 245L473 710H678L417 0H255L-9 710Z" />
<glyph unicode="W" glyph-name="W" horiz-adv-x="1059" d="M403 371L288 710H467L529 491L592 710H771L654 371L705 223L858 710H1070L792 0H630L529 254L429 0H267L-11 710H200L354 223L403 371Z" />
<glyph unicode="X" glyph-name="X" horiz-adv-x="655" d="M-12 710H199L328 486L457 710H667L430 350L659 0H449L328 214L207 0H-4L225 350L-12 710Z" />
<glyph unicode="Y" glyph-name="Y" horiz-adv-x="652" d="M-13 710H198L325 403L455 710H667L422 235V0H228V237L-13 710Z" />
<glyph unicode="Z" glyph-name="Z" horiz-adv-x="622" d="M27 0V145L359 540H42V710H584V565L272 170H590V0H27Z" />
<glyph unicode="[" glyph-name="bracketleft" horiz-adv-x="345" d="M306 -40H61V740H306V590H236V110H306V-40Z" />
<glyph unicode="\" glyph-name="backslash" horiz-adv-x="697" d="M25 710H235L670 0H461L25 710Z" />
<glyph unicode="]" glyph-name="bracketright" horiz-adv-x="345" d="M284 -40H39V110H109V590H39V740H284V-40Z" />
<glyph unicode="^" glyph-name="asciicircum" horiz-adv-x="625" d="M187 303H36L234 710H392L589 303H436L313 556L187 303Z" />
<glyph unicode="_" glyph-name="underscore" horiz-adv-x="355" d="M354 -170H1V0H354V-170Z" />
<glyph unicode="`" glyph-name="grave" horiz-adv-x="284" d="M144 556L45 730H214L264 588L144 556Z" />
<glyph unicode="a" glyph-name="a" horiz-adv-x="604" d="M203 -10Q124 -10 72 38T19 159Q19 238 82 288T246 339Q310 339 352 319V335Q352 408 261 408Q184 408 98 351L43 469Q147 536 280 536Q406 536 474 479T542 312V210Q542 183 552 172T588 160V0Q538 -10
498 -10Q401 -10 386 63L382 82Q310 -10 203 -10ZM260 126Q297 126 327 146Q352 163 352 183V222Q314 236 279 236Q245 236 222 219T198 176Q198 154 215 140T260 126Z" />
<glyph unicode="b" glyph-name="b" horiz-adv-x="647" d="M383 -10Q264 -10 213 82V0H48V730H238V448Q284 536 402 536Q499 536 563 458T627 261Q627 144 558 67T383 -10ZM328 150Q375 150 403 180T432 260Q432 308 405 342T336 376Q306 376 279 355T238 298V204Q276
150 328 150Z" />
<glyph unicode="c" glyph-name="c" horiz-adv-x="576" d="M19 149T19 263T96 456T308 536Q400 536 465 498T565 393L380 337Q353 376 307 376Q267 376 241 346T214 263T240 181T307 150Q353 150 380 189L565 133Q531 67 466 29T308 -10Q174 -10 97 69Z" />
<glyph unicode="d" glyph-name="d" horiz-adv-x="672" d="M268 -10Q159 -10 90 66T20 264Q20 381 84 458T250 536Q301 536 344 513T409 448V730H599V210Q599 183 609 172T645 160V0Q591 -10 555 -10Q458 -10 443 63L439 82Q387 -10 268 -10ZM320 150Q372 150 410
204V298Q396 333 369 354T312 376Q271 376 244 342T216 260Q216 211 244 181T320 150Z" />
<glyph unicode="e" glyph-name="e" horiz-adv-x="610" d="M307 -10Q174 -10 97 67T19 256Q19 376 95 456T307 536Q442 536 518 457T595 263Q595 232 590 205H221Q224 166 250 146T313 126Q345 126 372 140T408 179L569 133Q535 68 468 29T307 -10ZM217 319H391Q387
357 364 379T304 401T245 379T217 319Z" />
<glyph unicode="f" glyph-name="f" horiz-adv-x="411" d="M278 0H88V322H23V465H88V522Q88 621 141 680T281 740Q348 740 427 710L395 566Q356 580 324 580Q278 580 278 529V465H393V322H278V0Z" />
<glyph unicode="g" glyph-name="g" horiz-adv-x="647" d="M250 0Q149 0 85 75T21 264Q21 382 89 459T266 536Q383 536 434 448V526H599V48Q599 -75 511 -149T279 -223Q122 -223 23 -122L123 -18Q191 -82 279 -82Q336 -82 372 -50T409 48V82Q387 42 345 21T250
0ZM318 150Q371 150 409 204V298Q395 334 368 355T310 376Q270 376 243 342T215 259T244 181T318 150Z" />
<glyph unicode="h" glyph-name="h" horiz-adv-x="621" d="M577 346V0H387V296Q387 333 371 351T326 370Q305 370 278 349T238 295V0H48V730H238V448Q295 536 412 536Q577 536 577 346Z" />
<glyph unicode="i" glyph-name="i" horiz-adv-x="286" d="M238 0H48V526H238V0ZM238 570H48V730H238V570Z" />
<glyph unicode="j" glyph-name="j" horiz-adv-x="286" d="M32 -209Q-54 -209 -117 -155L-39 -26Q-21 -46 8 -46Q48 -46 48 -3V526H238V12Q238 -86 181 -147T32 -209ZM238 570H48V730H238V570Z" />
<glyph unicode="k" glyph-name="k" horiz-adv-x="582" d="M596 0H395L276 192L238 150V0H48V730H238V331L378 526H578L397 296L596 0Z" />
<glyph unicode="l" glyph-name="l" horiz-adv-x="363" d="M45 142V730H235V222Q235 162 284 162Q309 162 336 177L360 24Q287 -10 203 -10Q127 -10 86 29T45 142Z" />
<glyph unicode="m" glyph-name="m" horiz-adv-x="940" d="M896 346V0H706V296Q706 333 691 351T653 370T605 349T567 295V0H377V296Q377 333 362 351T324 370T276 349T238 295V0H48V526H219V448Q276 536 412 536Q525 536 554 445Q582 488 631 512T741 536Q896
536 896 346Z" />
<glyph unicode="n" glyph-name="n" horiz-adv-x="621" d="M577 346V0H387V296Q387 333 371 351T329 370T277 349T238 295V0H48V526H219V448Q276 536 417 536Q577 536 577 346Z" />
<glyph unicode="o" glyph-name="o" horiz-adv-x="614" d="M442 -10T307 -10T96 69T19 263Q19 378 95 457T307 536T518 457T595 263Q595 149 519 70ZM214 315T214 263T240 181T307 150T374 180T400 263T374 345T307 376T240 346Z" />
<glyph unicode="p" glyph-name="p" horiz-adv-x="646" d="M402 -10Q284 -10 238 78V-213H48V526H213V447Q271 536 383 536Q488 536 557 459T626 265Q626 146 563 68T402 -10ZM336 150Q377 150 404 184T432 266Q432 315 404 345T328 376Q276 376 238 322V231Q252
196 279 173T336 150Z" />
<glyph unicode="q" glyph-name="q" horiz-adv-x="646" d="M244 -10Q147 -10 84 68T20 265Q20 382 89 459T263 536Q374 536 433 445V526H598V7Q598 -20 608 -31T644 -43V-203Q589 -213 539 -213Q484 -213 446 -181T408 -96V78Q362 -10 244 -10ZM318 150Q370 150
408 204V298Q394 333 367 354T310 376Q269 376 242 342T214 260Q214 211 242 181T318 150Z" />
<glyph unicode="r" glyph-name="r" horiz-adv-x="417" d="M405 535V364Q279 364 238 312V0H48V526H222V426Q250 478 292 507T381 536Q400 536 405 535Z" />
<glyph unicode="s" glyph-name="s" horiz-adv-x="527" d="M282 -10Q215 -10 137 8T7 53L80 182Q193 123 278 123Q328 123 328 148Q328 161 308 171T232 195Q120 224 77 258T34 352Q34 433 97 485T259 537Q366 537 496 478L423 357Q319 406 259 406Q210 406 210
379Q210 364 228 355T299 333Q420 302 465 266T511 165Q511 84 450 37T282 -10Z" />
<glyph unicode="t" glyph-name="t" horiz-adv-x="424" d="M383 179L417 29Q325 -11 242 -11Q171 -11 128 25T84 142V383H19V526H84V691H274V526H377V383H274V209Q274 162 315 162Q342 162 383 179Z" />
<glyph unicode="u" glyph-name="u" horiz-adv-x="646" d="M208 -10Q128 -10 86 39T44 180V526H234V223Q234 189 249 170T292 150Q346 150 383 204V526H573V210Q573 183 583 172T619 160V0Q565 -10 529 -10Q432 -10 417 63L413 82Q344 -10 208 -10Z" />
<glyph unicode="v" glyph-name="v" horiz-adv-x="555" d="M381 0H174L-3 526H192L286 149L381 526H558L381 0Z" />
<glyph unicode="w" glyph-name="w" horiz-adv-x="870" d="M570 173L697 526H876L661 0H506L435 200L364 0H209L-6 526H173L300 173L333 286L239 526H390L435 372L480 526H631L537 286L570 173Z" />
<glyph unicode="x" glyph-name="x" horiz-adv-x="552" d="M-2 526H191L266 397L276 376L286 397L361 526H554L378 263L559 0H366L285 129L276 149L267 129L186 0H-7L174 263L-2 526Z" />
<glyph unicode="y" glyph-name="y" horiz-adv-x="546" d="M36 -215V-53Q82 -70 114 -70Q175 -70 181 0L-10 526H185L285 161L366 526H543L365 -63Q342 -140 279 -187T134 -234Q83 -234 36 -215Z" />
<glyph unicode="z" glyph-name="z" horiz-adv-x="494" d="M22 0V112L262 396H37V526H460V414L221 130H469V0H22Z" />
<glyph unicode="{" glyph-name="braceleft" horiz-adv-x="352" d="M312 590H257V436Q257 397 216 360Q257 323 257 284V119H312V-31H110Q87 -31 87 -1V219Q87 249 69 270T27 296V426Q48 426 67 450T87 501V710Q87 726 94 733T110 740H312V590Z" />
<glyph unicode="|" glyph-name="bar" horiz-adv-x="278" d="M219 -130H59V775H219V-130Z" />
<glyph unicode="}" glyph-name="braceright" horiz-adv-x="352" d="M95 590H40V740H242Q250 740 257 733T265 710V501Q265 474 284 450T325 426V296Q302 291 284 270T265 219V-1Q265 -31 242 -31H40V119H95V284Q95 323 136 360Q95 397 95 436V590Z" />
<glyph unicode="~" glyph-name="asciitilde" horiz-adv-x="609" d="M45 216Q45 227 50 245T67 286T97 328T145 360T211 374Q254 374 312 349T400 323Q427 323 444 335T465 358T469 374H569Q569 366 564 350T547 310T516 266T467 231T399 216Q359 216 300 240T210
264Q182 264 166 252T148 231T146 216H45Z" />
</font>
</defs>
</svg>
